<svg width="393" height="91" viewBox="0 0 393 91" fill="none" xmlns="http://www.w3.org/2000/svg">
<mask id="path-1-outside-1_152_22" maskUnits="userSpaceOnUse" x="1.13598" y="29.1419" width="41.7149" height="42.5733" fill="black">
<rect fill="white" x="1.13598" y="29.1419" width="41.7149" height="42.5733"/>
<path d="M9.22705 69.2892L17.2149 34.9013L22.3531 34.2135L39.057 65.296L34.8227 65.8628L30.2475 57.3708L15.5467 59.3387L13.3661 68.7351L9.22705 69.2892ZM16.306 55.605L28.5329 53.9682L20.3921 38.7377L20.1542 38.7695L16.306 55.605Z"/>
</mask>
<path d="M9.22705 69.2892L17.2149 34.9013L22.3531 34.2135L39.057 65.296L34.8227 65.8628L30.2475 57.3708L15.5467 59.3387L13.3661 68.7351L9.22705 69.2892ZM16.306 55.605L28.5329 53.9682L20.3921 38.7377L20.1542 38.7695L16.306 55.605Z" fill="#E50914"/>
<path d="M9.22705 69.2892L7.27892 68.8367L6.62415 71.6555L9.49242 71.2716L9.22705 69.2892ZM17.2149 34.9013L16.9496 32.919L15.5796 33.1024L15.2668 34.4488L17.2149 34.9013ZM22.3531 34.2135L24.1148 33.2667L23.4596 32.0475L22.0877 32.2312L22.3531 34.2135ZM39.057 65.296L39.3223 67.2783L42.1867 66.8948L40.8187 64.3492L39.057 65.296ZM34.8227 65.8628L33.062 66.8114L33.7178 68.0286L35.0881 67.8451L34.8227 65.8628ZM30.2475 57.3708L32.0082 56.4222L31.3525 55.205L29.9821 55.3885L30.2475 57.3708ZM15.5467 59.3387L15.2813 57.3564L13.911 57.5399L13.5984 58.8866L15.5467 59.3387ZM13.3661 68.7351L13.6315 70.7175L15.0018 70.534L15.3144 69.1873L13.3661 68.7351ZM16.306 55.605L14.3562 55.1593L13.7138 57.9698L16.5713 57.5873L16.306 55.605ZM28.5329 53.9682L28.7983 55.9505L31.6558 55.568L30.2967 53.0254L28.5329 53.9682ZM20.3921 38.7377L22.1559 37.7949L21.5019 36.5713L20.1267 36.7554L20.3921 38.7377ZM20.1542 38.7695L19.8888 36.7872L18.5136 36.9713L18.2045 38.3239L20.1542 38.7695ZM11.1752 69.7418L19.1631 35.3538L15.2668 34.4488L7.27892 68.8367L11.1752 69.7418ZM17.4803 36.8836L22.6185 36.1958L22.0877 32.2312L16.9496 32.919L17.4803 36.8836ZM20.5914 35.1602L37.2952 66.2427L40.8187 64.3492L24.1148 33.2667L20.5914 35.1602ZM38.7916 63.3136L34.5574 63.8805L35.0881 67.8451L39.3223 67.2783L38.7916 63.3136ZM36.5834 64.9142L32.0082 56.4222L28.4868 58.3194L33.062 66.8114L36.5834 64.9142ZM29.9821 55.3885L15.2813 57.3564L15.812 61.3211L30.5129 59.3531L29.9821 55.3885ZM13.5984 58.8866L11.4179 68.283L15.3144 69.1873L17.4949 59.7908L13.5984 58.8866ZM13.1008 66.7528L8.96168 67.3069L9.49242 71.2716L13.6315 70.7175L13.1008 66.7528ZM16.5713 57.5873L28.7983 55.9505L28.2675 51.9859L16.0406 53.6227L16.5713 57.5873ZM30.2967 53.0254L22.1559 37.7949L18.6282 39.6805L26.769 54.911L30.2967 53.0254ZM20.1267 36.7554L19.8888 36.7872L20.4195 40.7518L20.6574 40.72L20.1267 36.7554ZM18.2045 38.3239L14.3562 55.1593L18.2557 56.0506L22.1039 39.2152L18.2045 38.3239Z" fill="#E50914" mask="url(#path-1-outside-1_152_22)"/>
<mask id="path-3-outside-2_152_22" maskUnits="userSpaceOnUse" x="43.8129" y="25.2912" width="34.7321" height="40.9777" fill="black">
<rect fill="white" x="43.8129" y="25.2912" width="34.7321" height="40.9777"/>
<path d="M50.2886 63.9924L46.9032 31.1423L51.105 30.7093L70.7439 54.1154L70.9348 54.0957L68.3417 28.933L72.3047 28.5246L75.6901 61.3746L71.7271 61.783L51.8003 37.9241L51.6093 37.9437L54.2516 63.584L50.2886 63.9924Z"/>
</mask>
<path d="M50.2886 63.9924L46.9032 31.1423L51.105 30.7093L70.7439 54.1154L70.9348 54.0957L68.3417 28.933L72.3047 28.5246L75.6901 61.3746L71.7271 61.783L51.8003 37.9241L51.6093 37.9437L54.2516 63.584L50.2886 63.9924Z" fill="#E50914"/>
<path d="M50.2886 63.9924L48.2991 64.1974L48.5042 66.1868L50.4936 65.9818L50.2886 63.9924ZM46.9032 31.1423L46.6982 29.1529L44.7088 29.3579L44.9138 31.3474L46.9032 31.1423ZM51.105 30.7093L52.6371 29.4238L51.9552 28.6111L50.9 28.7199L51.105 30.7093ZM70.7439 54.1154L69.2117 55.4009L69.8936 56.2136L70.9489 56.1049L70.7439 54.1154ZM70.9348 54.0957L71.1399 56.0852L73.1293 55.8802L72.9243 53.8907L70.9348 54.0957ZM68.3417 28.933L68.1367 26.9435L66.1472 27.1486L66.3522 29.138L68.3417 28.933ZM72.3047 28.5246L74.2942 28.3196L74.0892 26.3301L72.0997 26.5351L72.3047 28.5246ZM75.6901 61.3746L75.8951 63.3641L77.8846 63.1591L77.6795 61.1696L75.6901 61.3746ZM71.7271 61.783L70.192 63.0651L70.8739 63.8815L71.9321 63.7725L71.7271 61.783ZM51.8003 37.9241L53.3353 36.642L52.6534 35.8256L51.5952 35.9346L51.8003 37.9241ZM51.6093 37.9437L51.4042 35.9543L49.4148 36.1593L49.6198 38.1488L51.6093 37.9437ZM54.2516 63.584L54.4566 65.5734L56.4461 65.3684L56.2411 63.3789L54.2516 63.584ZM52.2781 63.7873L48.8927 30.9373L44.9138 31.3474L48.2991 64.1974L52.2781 63.7873ZM47.1083 33.1318L51.31 32.6988L50.9 28.7199L46.6982 29.1529L47.1083 33.1318ZM49.5729 31.9949L69.2117 55.4009L72.276 52.8299L52.6371 29.4238L49.5729 31.9949ZM70.9489 56.1049L71.1399 56.0852L70.7298 52.1063L70.5388 52.126L70.9489 56.1049ZM72.9243 53.8907L70.3312 28.728L66.3522 29.138L68.9454 54.3008L72.9243 53.8907ZM68.5467 30.9225L72.5097 30.5141L72.0997 26.5351L68.1367 26.9435L68.5467 30.9225ZM70.3153 28.7296L73.7006 61.5796L77.6795 61.1696L74.2942 28.3196L70.3153 28.7296ZM75.485 59.3852L71.522 59.7936L71.9321 63.7725L75.8951 63.3641L75.485 59.3852ZM73.2621 60.501L53.3353 36.642L50.2652 39.2061L70.192 63.0651L73.2621 60.501ZM51.5952 35.9346L51.4042 35.9543L51.8143 39.9332L52.0053 39.9135L51.5952 35.9346ZM49.6198 38.1488L52.2621 63.789L56.2411 63.3789L53.5987 37.7387L49.6198 38.1488ZM54.0466 61.5945L50.0836 62.0029L50.4936 65.9818L54.4566 65.5734L54.0466 61.5945Z" fill="#E50914" mask="url(#path-3-outside-2_152_22)"/>
<mask id="path-5-outside-3_152_22" maskUnits="userSpaceOnUse" x="84.6517" y="22.2388" width="32.7392" height="41.0654" fill="black">
<rect fill="white" x="84.6517" y="22.2388" width="32.7392" height="41.0654"/>
<path d="M103.901 59.4912C101.571 59.66 99.5827 59.6757 97.9365 59.5382C96.2879 59.3689 94.9116 58.9713 93.8075 58.3454C92.7353 57.7172 91.8509 56.8027 91.1544 55.6019C90.4874 54.3669 89.9557 52.7851 89.5594 50.8567C89.1926 48.8941 88.9064 46.4925 88.7006 43.652C88.4949 40.8114 88.4332 38.4096 88.5156 36.4465C88.6276 34.4492 88.9417 32.8062 89.458 31.5175C89.9719 30.197 90.7301 29.1474 91.7324 28.369C92.7348 27.5905 94.0247 27.0158 95.602 26.6449C97.2089 26.2398 99.1614 25.954 101.459 25.7875C102.545 25.7089 103.713 25.6724 104.965 25.678C106.216 25.6836 107.437 25.7074 108.627 25.7496C109.849 25.7894 110.946 25.8704 111.918 25.9925L112.16 29.3437C111.127 29.2581 110.081 29.2056 109.021 29.1861C107.958 29.1348 106.962 29.1107 106.032 29.1139C105.133 29.1148 104.365 29.1384 103.727 29.1846C101.748 29.3279 100.06 29.4983 98.6624 29.6958C97.2969 29.891 96.1824 30.2284 95.3188 30.708C94.4552 31.1876 93.8187 31.9236 93.4093 32.9157C92.9976 33.876 92.7402 35.194 92.637 36.8699C92.5657 38.5434 92.626 40.7047 92.8179 43.3537C92.9866 45.6836 93.1926 47.6419 93.4359 49.2284C93.6768 50.7831 94.0246 52.0412 94.4793 53.0029C94.9659 53.9623 95.5799 54.6878 96.3214 55.1795C97.0947 55.6689 98.0788 55.9666 99.2736 56.0726C100.498 56.1443 101.988 56.1166 103.743 55.9894C104.414 55.9409 105.146 55.8718 105.942 55.7821C106.738 55.6923 107.516 55.5878 108.277 55.4685C109.039 55.3492 109.673 55.2391 110.179 55.1383L109.402 44.4144L101.933 44.9554L101.68 41.4605L113.122 40.6317L114.364 57.7708C113.324 58.0386 112.172 58.2985 110.907 58.5506C109.672 58.7684 108.434 58.9543 107.194 59.1083C105.988 59.2919 104.89 59.4196 103.901 59.4912Z"/>
</mask>
<path d="M103.901 59.4912C101.571 59.66 99.5827 59.6757 97.9365 59.5382C96.2879 59.3689 94.9116 58.9713 93.8075 58.3454C92.7353 57.7172 91.8509 56.8027 91.1544 55.6019C90.4874 54.3669 89.9557 52.7851 89.5594 50.8567C89.1926 48.8941 88.9064 46.4925 88.7006 43.652C88.4949 40.8114 88.4332 38.4096 88.5156 36.4465C88.6276 34.4492 88.9417 32.8062 89.458 31.5175C89.9719 30.197 90.7301 29.1474 91.7324 28.369C92.7348 27.5905 94.0247 27.0158 95.602 26.6449C97.2089 26.2398 99.1614 25.954 101.459 25.7875C102.545 25.7089 103.713 25.6724 104.965 25.678C106.216 25.6836 107.437 25.7074 108.627 25.7496C109.849 25.7894 110.946 25.8704 111.918 25.9925L112.16 29.3437C111.127 29.2581 110.081 29.2056 109.021 29.1861C107.958 29.1348 106.962 29.1107 106.032 29.1139C105.133 29.1148 104.365 29.1384 103.727 29.1846C101.748 29.3279 100.06 29.4983 98.6624 29.6958C97.2969 29.891 96.1824 30.2284 95.3188 30.708C94.4552 31.1876 93.8187 31.9236 93.4093 32.9157C92.9976 33.876 92.7402 35.194 92.637 36.8699C92.5657 38.5434 92.626 40.7047 92.8179 43.3537C92.9866 45.6836 93.1926 47.6419 93.4359 49.2284C93.6768 50.7831 94.0246 52.0412 94.4793 53.0029C94.9659 53.9623 95.5799 54.6878 96.3214 55.1795C97.0947 55.6689 98.0788 55.9666 99.2736 56.0726C100.498 56.1443 101.988 56.1166 103.743 55.9894C104.414 55.9409 105.146 55.8718 105.942 55.7821C106.738 55.6923 107.516 55.5878 108.277 55.4685C109.039 55.3492 109.673 55.2391 110.179 55.1383L109.402 44.4144L101.933 44.9554L101.68 41.4605L113.122 40.6317L114.364 57.7708C113.324 58.0386 112.172 58.2985 110.907 58.5506C109.672 58.7684 108.434 58.9543 107.194 59.1083C105.988 59.2919 104.89 59.4196 103.901 59.4912Z" fill="#E50914"/>
<path d="M97.9365 59.5382L97.7321 61.5278L97.7511 61.5297L97.7701 61.5313L97.9365 59.5382ZM93.8075 58.3454L92.7965 60.071L92.8088 60.0783L92.8212 60.0853L93.8075 58.3454ZM91.1544 55.6019L89.3946 56.5523L89.4091 56.5791L89.4244 56.6055L91.1544 55.6019ZM89.5594 50.8567L87.5934 51.2241L87.5967 51.2418L87.6003 51.2594L89.5594 50.8567ZM88.5156 36.4465L86.5187 36.3345L86.5179 36.3486L86.5174 36.3626L88.5156 36.4465ZM89.458 31.5175L91.3145 32.2613L91.3182 32.2521L91.3218 32.2429L89.458 31.5175ZM91.7324 28.369L92.9592 29.9486L92.9592 29.9486L91.7324 28.369ZM95.602 26.6449L96.0598 28.5918L96.0754 28.5882L96.091 28.5842L95.602 26.6449ZM104.965 25.678L104.956 27.678L104.956 27.678L104.965 25.678ZM108.627 25.7496L108.557 27.7483L108.562 27.7485L108.627 25.7496ZM111.918 25.9925L113.912 25.848L113.794 24.2127L112.167 24.0081L111.918 25.9925ZM112.16 29.3437L111.995 31.3369L114.324 31.5299L114.155 29.1992L112.16 29.3437ZM109.021 29.1861L108.924 31.1838L108.954 31.1853L108.984 31.1858L109.021 29.1861ZM106.032 29.1139L106.034 31.1139L106.039 31.1139L106.032 29.1139ZM98.6624 29.6958L98.3826 27.7155L98.3794 27.7159L98.6624 29.6958ZM93.4093 32.9157L95.2475 33.7038L95.2529 33.6912L95.2581 33.6786L93.4093 32.9157ZM92.637 36.8699L90.6407 36.7469L90.6396 36.7658L90.6388 36.7847L92.637 36.8699ZM93.4359 49.2284L91.459 49.5315L91.4595 49.5347L93.4359 49.2284ZM94.4793 53.0029L92.6712 53.8578L92.6831 53.8828L92.6956 53.9076L94.4793 53.0029ZM96.3214 55.1795L95.216 56.8463L95.2338 56.8581L95.2519 56.8696L96.3214 55.1795ZM99.2736 56.0726L99.0969 58.0648L99.1267 58.0674L99.1566 58.0691L99.2736 56.0726ZM105.942 55.7821L106.166 57.7695L106.166 57.7695L105.942 55.7821ZM108.277 55.4685L107.968 53.4926L107.968 53.4926L108.277 55.4685ZM110.179 55.1383L110.569 57.0998L112.301 56.7548L112.173 54.9938L110.179 55.1383ZM109.402 44.4144L111.397 44.2699L111.252 42.2751L109.257 42.4196L109.402 44.4144ZM101.933 44.9554L99.9386 45.0999L100.083 47.0946L102.078 46.9501L101.933 44.9554ZM101.68 41.4605L101.536 39.4657L99.541 39.6102L99.6855 41.605L101.68 41.4605ZM113.122 40.6317L115.117 40.4872L114.973 38.4925L112.978 38.637L113.122 40.6317ZM114.364 57.7708L114.863 59.7076L116.479 59.2911L116.358 57.6263L114.364 57.7708ZM110.907 58.5506L111.254 60.5202L111.276 60.5164L111.298 60.512L110.907 58.5506ZM107.194 59.1083L106.947 57.1236L106.92 57.127L106.893 57.1311L107.194 59.1083ZM103.756 57.4964C101.491 57.6605 99.6131 57.6712 98.1029 57.5452L97.7701 61.5313C99.5523 61.6801 101.65 61.6595 104.045 61.486L103.756 57.4964ZM98.1408 57.5487C96.6871 57.3994 95.5958 57.0601 94.7938 56.6055L92.8212 60.0853C94.2274 60.8824 95.8888 61.3384 97.7321 61.5278L98.1408 57.5487ZM94.8185 56.6198C94.0781 56.1859 93.4284 55.5362 92.8844 54.5984L89.4244 56.6055C90.2735 58.0693 91.3926 59.2485 92.7965 60.071L94.8185 56.6198ZM92.9142 54.6516C92.3689 53.642 91.89 52.2618 91.5184 50.4541L87.6003 51.2594C88.0215 53.3085 88.6059 55.0918 89.3946 56.5523L92.9142 54.6516ZM91.5254 50.4894C91.1768 48.6241 90.8978 46.3019 90.6954 43.5075L86.7059 43.7964C86.915 46.6831 87.2085 49.1641 87.5934 51.2241L91.5254 50.4894ZM90.6954 43.5075C90.493 40.7124 90.4357 38.3919 90.5138 36.5304L86.5174 36.3626C86.4307 38.4273 86.4968 40.9104 86.7059 43.7964L90.6954 43.5075ZM90.5125 36.5585C90.6172 34.6909 90.9061 33.2808 91.3145 32.2613L87.6014 30.7738C86.9773 32.3316 86.638 34.2075 86.5187 36.3345L90.5125 36.5585ZM91.3218 32.2429C91.7202 31.2191 92.2748 30.48 92.9592 29.9486L90.5057 26.7894C89.1853 27.8148 88.2236 29.1748 87.5941 30.7922L91.3218 32.2429ZM92.9592 29.9486C93.681 29.388 94.6876 28.9145 96.0598 28.5918L95.1442 24.698C93.3618 25.1172 91.7887 25.793 90.5057 26.7894L92.9592 29.9486ZM96.091 28.5842C97.5508 28.2162 99.3808 27.9433 101.604 27.7823L101.315 23.7927C98.942 23.9646 96.867 24.2634 95.1131 24.7056L96.091 28.5842ZM101.604 27.7823C102.631 27.7079 103.748 27.6726 104.956 27.678L104.974 23.678C103.678 23.6722 102.458 23.7099 101.315 23.7927L101.604 27.7823ZM104.956 27.678C106.188 27.6835 107.388 27.707 108.557 27.7483L108.698 23.7508C107.486 23.7079 106.245 23.6837 104.974 23.678L104.956 27.678ZM108.562 27.7485C109.737 27.7868 110.771 27.8641 111.668 27.9769L112.167 24.0081C111.122 23.8767 109.962 23.792 108.692 23.7506L108.562 27.7485ZM109.923 26.137L110.165 29.4882L114.155 29.1992L113.912 25.848L109.923 26.137ZM112.325 27.3506C111.249 27.2613 110.159 27.2067 109.057 27.1865L108.984 31.1858C110.002 31.2045 111.006 31.2549 111.995 31.3369L112.325 27.3506ZM109.117 27.1885C108.025 27.1357 106.994 27.1106 106.025 27.1139L106.039 31.1139C106.93 31.1108 107.891 31.1339 108.924 31.1838L109.117 27.1885ZM106.03 27.1139C105.101 27.1148 104.283 27.1391 103.582 27.1898L103.871 31.1794C104.448 31.1376 105.166 31.1148 106.034 31.1139L106.03 27.1139ZM103.582 27.1898C101.575 27.3352 99.8388 27.5097 98.3826 27.7155L98.9423 31.6761C100.281 31.487 101.921 31.3206 103.871 31.1794L103.582 27.1898ZM98.3794 27.7159C96.8611 27.9329 95.491 28.3246 94.3477 28.9596L96.2899 32.4564C96.8738 32.1321 97.7328 31.849 98.9454 31.6757L98.3794 27.7159ZM94.3477 28.9596C93.0534 29.6784 92.1266 30.7809 91.5605 32.1529L95.2581 33.6786C95.5108 33.0662 95.857 32.6969 96.2899 32.4564L94.3477 28.9596ZM91.5711 32.1276C91.0309 33.3876 90.7506 34.9637 90.6407 36.7469L94.6332 36.9928C94.7298 35.4244 94.9643 34.3644 95.2475 33.7038L91.5711 32.1276ZM90.6388 36.7847C90.5629 38.5656 90.6285 40.8114 90.8231 43.4982L94.8126 43.2092C94.6235 40.598 94.5684 38.5211 94.6351 36.955L90.6388 36.7847ZM90.8231 43.4982C90.9941 45.8597 91.2049 47.8746 91.459 49.5315L95.4128 48.9253C95.1803 47.4091 94.9791 45.5076 94.8126 43.2092L90.8231 43.4982ZM91.4595 49.5347C91.7172 51.1976 92.1052 52.6607 92.6712 53.8578L96.2874 52.1481C95.944 51.4218 95.6365 50.3685 95.4123 48.9221L91.4595 49.5347ZM92.6956 53.9076C93.306 55.1111 94.1317 56.1272 95.216 56.8463L97.4267 53.5127C97.0281 53.2484 96.6258 52.8135 96.263 52.0982L92.6956 53.9076ZM95.2519 56.8696C96.365 57.5739 97.6797 57.9391 99.0969 58.0648L99.4503 54.0804C98.4779 53.9942 97.8245 53.7639 97.3908 53.4895L95.2519 56.8696ZM99.1566 58.0691C100.497 58.1476 102.079 58.1152 103.888 57.9842L103.599 53.9947C101.896 54.118 100.499 54.141 99.3906 54.076L99.1566 58.0691ZM103.888 57.9842C104.589 57.9334 105.349 57.8616 106.166 57.7695L105.718 53.7946C104.944 53.8819 104.238 53.9484 103.599 53.9947L103.888 57.9842ZM106.166 57.7695C106.989 57.6766 107.796 57.5683 108.587 57.4444L107.968 53.4926C107.236 53.6073 106.486 53.708 105.718 53.7946L106.166 57.7695ZM108.587 57.4444C109.364 57.3227 110.027 57.2079 110.569 57.0998L109.788 53.1769C109.318 53.2704 108.714 53.3757 107.968 53.4926L108.587 57.4444ZM112.173 54.9938L111.397 44.2699L107.407 44.5589L108.184 55.2828L112.173 54.9938ZM109.257 42.4196L101.789 42.9606L102.078 46.9501L109.546 46.4092L109.257 42.4196ZM103.928 44.8109L103.675 41.316L99.6855 41.605L99.9386 45.0999L103.928 44.8109ZM101.825 43.4553L113.267 42.6265L112.978 38.637L101.536 39.4657L101.825 43.4553ZM111.127 40.7762L112.369 57.9153L116.358 57.6263L115.117 40.4872L111.127 40.7762ZM113.865 55.8341C112.867 56.091 111.752 56.3429 110.516 56.5891L111.298 60.512C112.592 60.2541 113.781 59.9862 114.863 59.7076L113.865 55.8341ZM110.56 56.581C109.358 56.7929 108.153 56.9738 106.947 57.1236L107.44 61.0931C108.714 60.9349 109.985 60.7439 111.254 60.5202L110.56 56.581ZM106.893 57.1311C105.727 57.3085 104.683 57.4293 103.756 57.4964L104.045 61.486C105.097 61.4098 106.248 61.2753 107.495 61.0855L106.893 57.1311Z" fill="#E50914" mask="url(#path-5-outside-3_152_22)"/>
<mask id="path-7-outside-4_152_22" maskUnits="userSpaceOnUse" x="124.571" y="20.3755" width="31.6372" height="40.2448" fill="black">
<rect fill="white" x="124.571" y="20.3755" width="31.6372" height="40.2448"/>
<path d="M141.15 57.3648C138.88 57.4618 136.972 57.4152 135.427 57.225C133.912 57.0014 132.677 56.5897 131.723 55.9899C130.768 55.3901 130.027 54.541 129.5 53.4425C128.971 52.312 128.591 50.903 128.359 49.2153C128.126 47.5277 127.959 45.485 127.857 43.0872L127.064 24.5281L131.188 24.3519L132.05 44.5415C132.137 46.5557 132.286 48.1828 132.499 49.4228C132.712 50.6628 133.09 51.6236 133.631 52.3051C134.205 52.9853 135.073 53.4286 136.234 53.6352C137.396 53.8418 138.984 53.9021 140.998 53.8161C143.013 53.73 144.574 53.5352 145.682 53.2316C146.822 52.9267 147.633 52.4116 148.114 51.6864C148.628 50.9599 148.922 49.9704 148.996 48.7181C149.071 47.4658 149.065 45.8325 148.979 43.8183L148.117 23.6288L152.241 23.4526L153.034 42.0117C153.136 44.4095 153.144 46.459 153.056 48.1603C153.001 49.8602 152.758 51.2959 152.327 52.4673C151.927 53.6054 151.278 54.514 150.378 55.193C149.478 55.872 148.267 56.3882 146.745 56.7415C145.253 57.0614 143.388 57.2692 141.15 57.3648Z"/>
</mask>
<path d="M141.15 57.3648C138.88 57.4618 136.972 57.4152 135.427 57.225C133.912 57.0014 132.677 56.5897 131.723 55.9899C130.768 55.3901 130.027 54.541 129.5 53.4425C128.971 52.312 128.591 50.903 128.359 49.2153C128.126 47.5277 127.959 45.485 127.857 43.0872L127.064 24.5281L131.188 24.3519L132.05 44.5415C132.137 46.5557 132.286 48.1828 132.499 49.4228C132.712 50.6628 133.09 51.6236 133.631 52.3051C134.205 52.9853 135.073 53.4286 136.234 53.6352C137.396 53.8418 138.984 53.9021 140.998 53.8161C143.013 53.73 144.574 53.5352 145.682 53.2316C146.822 52.9267 147.633 52.4116 148.114 51.6864C148.628 50.9599 148.922 49.9704 148.996 48.7181C149.071 47.4658 149.065 45.8325 148.979 43.8183L148.117 23.6288L152.241 23.4526L153.034 42.0117C153.136 44.4095 153.144 46.459 153.056 48.1603C153.001 49.8602 152.758 51.2959 152.327 52.4673C151.927 53.6054 151.278 54.514 150.378 55.193C149.478 55.872 148.267 56.3882 146.745 56.7415C145.253 57.0614 143.388 57.2692 141.15 57.3648Z" fill="#E50914"/>
<path d="M135.427 57.225L135.135 59.2035L135.159 59.207L135.183 59.21L135.427 57.225ZM131.723 55.9899L130.659 57.6833L130.659 57.6833L131.723 55.9899ZM129.5 53.4425L127.688 54.2898L127.693 54.2989L127.697 54.308L129.5 53.4425ZM128.359 49.2153L126.377 49.488L126.377 49.488L128.359 49.2153ZM127.064 24.5281L126.978 22.5299L124.98 22.6153L125.066 24.6135L127.064 24.5281ZM131.188 24.3519L133.186 24.2666L133.101 22.2684L131.103 22.3537L131.188 24.3519ZM132.499 49.4228L134.47 49.084L134.47 49.084L132.499 49.4228ZM133.631 52.3051L132.065 53.5494L132.084 53.5722L132.102 53.5944L133.631 52.3051ZM136.234 53.6352L135.884 55.6043L135.884 55.6043L136.234 53.6352ZM145.682 53.2316L145.165 51.2995L145.153 51.3027L145.682 53.2316ZM148.114 51.6864L146.481 50.5322L146.464 50.556L146.448 50.5802L148.114 51.6864ZM148.117 23.6288L148.031 21.6306L146.033 21.7159L146.118 23.7141L148.117 23.6288ZM152.241 23.4526L154.239 23.3672L154.154 21.369L152.155 21.4544L152.241 23.4526ZM153.056 48.1603L151.059 48.0576L151.058 48.0763L151.057 48.095L153.056 48.1603ZM152.327 52.4673L150.45 51.7776L150.445 51.791L150.44 51.8045L152.327 52.4673ZM150.378 55.193L151.582 56.7895L151.582 56.7895L150.378 55.193ZM146.745 56.7415L147.164 58.697L147.18 58.6935L147.197 58.6897L146.745 56.7415ZM141.065 55.3666C138.86 55.4608 137.07 55.4121 135.671 55.2399L135.183 59.21C136.875 59.4182 138.901 59.4627 141.235 59.363L141.065 55.3666ZM135.719 55.2464C134.386 55.0497 133.438 54.706 132.787 54.2965L130.659 57.6833C131.916 58.4735 133.438 58.9532 135.135 59.2035L135.719 55.2464ZM132.787 54.2965C132.178 53.9137 131.681 53.3639 131.303 52.5769L127.697 54.308C128.374 55.718 129.359 56.8665 130.659 57.6833L132.787 54.2965ZM131.312 52.5951C130.893 51.6993 130.554 50.4986 130.34 48.9427L126.377 49.488C126.628 51.3073 127.05 52.9247 127.688 54.2898L131.312 52.5951ZM130.34 48.9427C130.119 47.3365 129.956 45.3601 129.855 43.0018L125.858 43.1725C125.963 45.6099 126.134 47.7189 126.377 49.488L130.34 48.9427ZM129.855 43.0018L129.062 24.4427L125.066 24.6135L125.858 43.1725L129.855 43.0018ZM127.149 26.5263L131.273 26.3501L131.103 22.3537L126.978 22.5299L127.149 26.5263ZM129.19 24.4373L130.052 44.6269L134.049 44.4561L133.186 24.2666L129.19 24.4373ZM130.052 44.6269C130.14 46.682 130.295 48.4033 130.528 49.7616L134.47 49.084C134.278 47.9622 134.133 46.4294 134.049 44.4561L130.052 44.6269ZM130.528 49.7616C130.774 51.1948 131.242 52.5136 132.065 53.5494L135.197 51.0608C134.937 50.7336 134.65 50.1308 134.47 49.084L130.528 49.7616ZM132.102 53.5944C133.063 54.7342 134.414 55.3428 135.884 55.6043L136.585 51.6661C135.732 51.5144 135.346 51.2363 135.16 51.0158L132.102 53.5944ZM135.884 55.6043C137.256 55.8482 139.011 55.9028 141.084 55.8142L140.913 51.8179C138.958 51.9014 137.537 51.8354 136.585 51.6661L135.884 55.6043ZM141.084 55.8142C143.154 55.7258 144.889 55.5227 146.21 55.1606L145.153 51.3027C144.259 51.5478 142.872 51.7342 140.913 51.8179L141.084 55.8142ZM146.199 55.1637C147.641 54.778 148.946 54.0493 149.78 52.7927L146.448 50.5802C146.319 50.774 146.003 51.0754 145.165 51.2996L146.199 55.1637ZM149.747 52.8407C150.547 51.7092 150.905 50.316 150.993 48.837L147 48.5991C146.939 49.6248 146.708 50.2106 146.481 50.5322L149.747 52.8407ZM150.993 48.837C151.073 47.4886 151.065 45.7798 150.977 43.733L146.981 43.9037C147.066 45.8852 147.069 47.4429 147 48.5991L150.993 48.837ZM150.977 43.733L150.115 23.5434L146.118 23.7141L146.981 43.9037L150.977 43.733ZM148.202 25.6269L152.326 25.4508L152.155 21.4544L148.031 21.6306L148.202 25.6269ZM150.243 23.5379L151.035 42.097L155.032 41.9263L154.239 23.3672L150.243 23.5379ZM151.035 42.097C151.136 44.4553 151.142 46.4384 151.059 48.0576L155.053 48.263C155.145 46.4796 155.136 44.3637 155.032 41.9263L151.035 42.097ZM151.057 48.095C151.006 49.6535 150.785 50.8644 150.45 51.7776L154.205 53.1571C154.73 51.7274 154.995 50.0669 155.055 48.2256L151.057 48.095ZM150.44 51.8045C150.161 52.5983 149.736 53.1716 149.173 53.5965L151.582 56.7895C152.819 55.8564 153.693 54.6126 154.214 53.1302L150.44 51.8045ZM149.173 53.5965C148.565 54.0551 147.641 54.4804 146.292 54.7933L147.197 58.6897C148.893 58.296 150.39 57.689 151.582 56.7895L149.173 53.5965ZM146.325 54.786C144.981 55.0742 143.237 55.2738 141.065 55.3666L141.235 59.363C143.539 59.2646 145.524 59.0487 147.164 58.697L146.325 54.786Z" fill="#E50914" mask="url(#path-7-outside-4_152_22)"/>
<mask id="path-9-outside-5_152_22" maskUnits="userSpaceOnUse" x="164.463" y="19.7452" width="25.5961" height="38.3895" fill="black">
<rect fill="white" x="164.463" y="19.7452" width="25.5961" height="38.3895"/>
<path d="M167.83 56.0908L167.31 23.0709L171.437 23.0058L171.9 52.3782L187.306 52.1352L187.364 55.7828L167.83 56.0908Z"/>
</mask>
<path d="M167.83 56.0908L167.31 23.0709L171.437 23.0058L171.9 52.3782L187.306 52.1352L187.364 55.7828L167.83 56.0908Z" fill="#E50914"/>
<path d="M167.83 56.0908L165.831 56.1223L165.862 58.1221L167.862 58.0906L167.83 56.0908ZM167.31 23.0709L167.278 21.0712L165.278 21.1027L165.31 23.1025L167.31 23.0709ZM171.437 23.0058L173.437 22.9743L173.405 20.9745L171.406 21.0061L171.437 23.0058ZM171.9 52.3782L169.901 52.4097L169.932 54.4095L171.932 54.3779L171.9 52.3782ZM187.306 52.1352L189.306 52.1037L189.275 50.1039L187.275 50.1355L187.306 52.1352ZM187.364 55.7828L187.395 57.7825L189.395 57.751L189.364 55.7512L187.364 55.7828ZM169.83 56.0593L169.309 23.0394L165.31 23.1025L165.831 56.1223L169.83 56.0593ZM167.341 25.0707L171.469 25.0056L171.406 21.0061L167.278 21.0712L167.341 25.0707ZM169.437 23.0374L169.901 52.4097L173.9 52.3466L173.437 22.9743L169.437 23.0374ZM171.932 54.3779L187.338 54.135L187.275 50.1355L171.869 50.3784L171.932 54.3779ZM185.307 52.1667L185.364 55.8143L189.364 55.7512L189.306 52.1037L185.307 52.1667ZM187.332 53.783L167.799 54.0911L167.862 58.0906L187.395 57.7825L187.332 53.783Z" fill="#E50914" mask="url(#path-9-outside-5_152_22)"/>
<mask id="path-11-outside-6_152_22" maskUnits="userSpaceOnUse" x="191.96" y="19.678" width="37.4071" height="38.3963" fill="black">
<rect fill="white" x="191.96" y="19.678" width="37.4071" height="38.3963"/>
<path d="M195.325 55.712L208.16 22.8243L213.344 22.8801L225.419 56.0361L221.148 55.9901L217.837 46.9299L203.006 46.7702L199.501 55.7569L195.325 55.712ZM204.293 43.1838L216.628 43.3167L210.755 27.0765L210.515 27.0739L204.293 43.1838Z"/>
</mask>
<path d="M195.325 55.712L208.16 22.8243L213.344 22.8801L225.419 56.0361L221.148 55.9901L217.837 46.9299L203.006 46.7702L199.501 55.7569L195.325 55.712ZM204.293 43.1838L216.628 43.3167L210.755 27.0765L210.515 27.0739L204.293 43.1838Z" fill="#E50914"/>
<path d="M195.325 55.712L193.462 54.9848L192.41 57.6807L195.304 57.7119L195.325 55.712ZM208.16 22.8243L208.182 20.8244L206.8 20.8095L206.297 22.0972L208.16 22.8243ZM213.344 22.8801L215.223 22.1957L214.749 20.8951L213.365 20.8802L213.344 22.8801ZM225.419 56.0361L225.398 58.036L228.288 58.0671L227.299 55.3516L225.419 56.0361ZM221.148 55.9901L219.269 56.6765L219.744 57.9751L221.126 57.99L221.148 55.9901ZM217.837 46.9299L219.716 46.2435L219.241 44.9449L217.859 44.93L217.837 46.9299ZM203.006 46.7702L203.028 44.7703L201.645 44.7554L201.143 46.0434L203.006 46.7702ZM199.501 55.7569L199.479 57.7568L200.862 57.7717L201.364 56.4837L199.501 55.7569ZM204.293 43.1838L202.427 42.4633L201.388 45.1526L204.271 45.1837L204.293 43.1838ZM216.628 43.3167L216.606 45.3165L219.489 45.3476L218.509 42.6365L216.628 43.3167ZM210.755 27.0765L212.635 26.3963L212.163 25.0915L210.776 25.0766L210.755 27.0765ZM210.515 27.0739L210.536 25.074L209.149 25.0591L208.649 26.3533L210.515 27.0739ZM197.188 56.4391L210.023 23.5514L206.297 22.0972L193.462 54.9848L197.188 56.4391ZM208.139 24.8242L213.322 24.88L213.365 20.8802L208.182 20.8244L208.139 24.8242ZM211.465 23.5645L223.54 56.7205L227.299 55.3516L215.223 22.1957L211.465 23.5645ZM225.441 54.0362L221.169 53.9902L221.126 57.99L225.398 58.036L225.441 54.0362ZM223.026 55.3036L219.716 46.2435L215.959 47.6163L219.269 56.6765L223.026 55.3036ZM217.859 44.93L203.028 44.7703L202.984 48.77L217.816 48.9298L217.859 44.93ZM201.143 46.0434L197.638 55.0302L201.364 56.4837L204.869 47.4969L201.143 46.0434ZM199.523 53.7571L195.347 53.7121L195.304 57.7119L199.479 57.7568L199.523 53.7571ZM204.271 45.1837L216.606 45.3165L216.649 41.3168L204.314 41.1839L204.271 45.1837ZM218.509 42.6365L212.635 26.3963L208.874 27.7567L214.747 43.9969L218.509 42.6365ZM210.776 25.0766L210.536 25.074L210.493 29.0738L210.733 29.0763L210.776 25.0766ZM208.649 26.3533L202.427 42.4633L206.158 43.9044L212.38 27.7944L208.649 26.3533Z" fill="#E50914" mask="url(#path-11-outside-6_152_22)"/>
<mask id="path-13-outside-7_152_22" maskUnits="userSpaceOnUse" x="233.846" y="20.2874" width="32.4948" height="39.2093" fill="black">
<rect fill="white" x="233.846" y="20.2874" width="32.4948" height="39.2093"/>
<path d="M236.724 56.3706L238.044 23.373L253.2 23.9796C255.278 24.0628 256.915 24.3845 258.109 24.9447C259.337 25.4742 260.22 26.2141 260.759 27.1644C261.33 28.084 261.688 29.1551 261.831 30.3779C261.974 31.6006 262.018 32.8994 261.963 34.2743C261.916 35.4573 261.755 36.6838 261.48 37.9539C261.238 39.1932 260.729 40.3097 259.953 41.3035C259.208 42.2985 258.059 43.0051 256.505 43.4233L261.52 57.363L257.107 57.1864L252.194 43.1067L253.322 43.7283C253.096 43.7833 252.822 43.8204 252.501 43.8395C252.18 43.8587 251.748 43.8574 251.204 43.8357L241.372 43.4422L240.848 56.5357L236.724 56.3706ZM241.516 39.845L250.773 40.2155C252.372 40.2795 253.624 40.2015 254.529 39.9815C255.467 39.7629 256.154 39.39 256.592 38.8631C257.061 38.3375 257.375 37.6935 257.534 36.9312C257.693 36.137 257.795 35.1963 257.839 34.1092C257.882 33.0221 257.855 32.0922 257.758 31.3197C257.694 30.5165 257.465 29.8508 257.069 29.3226C256.707 28.7637 256.084 28.3384 255.199 28.0468C254.347 27.7245 253.154 27.5326 251.619 27.4712L242.027 27.0873L241.516 39.845Z"/>
</mask>
<path d="M236.724 56.3706L238.044 23.373L253.2 23.9796C255.278 24.0628 256.915 24.3845 258.109 24.9447C259.337 25.4742 260.22 26.2141 260.759 27.1644C261.33 28.084 261.688 29.1551 261.831 30.3779C261.974 31.6006 262.018 32.8994 261.963 34.2743C261.916 35.4573 261.755 36.6838 261.48 37.9539C261.238 39.1932 260.729 40.3097 259.953 41.3035C259.208 42.2985 258.059 43.0051 256.505 43.4233L261.52 57.363L257.107 57.1864L252.194 43.1067L253.322 43.7283C253.096 43.7833 252.822 43.8204 252.501 43.8395C252.18 43.8587 251.748 43.8574 251.204 43.8357L241.372 43.4422L240.848 56.5357L236.724 56.3706ZM241.516 39.845L250.773 40.2155C252.372 40.2795 253.624 40.2015 254.529 39.9815C255.467 39.7629 256.154 39.39 256.592 38.8631C257.061 38.3375 257.375 37.6935 257.534 36.9312C257.693 36.137 257.795 35.1963 257.839 34.1092C257.882 33.0221 257.855 32.0922 257.758 31.3197C257.694 30.5165 257.465 29.8508 257.069 29.3226C256.707 28.7637 256.084 28.3384 255.199 28.0468C254.347 27.7245 253.154 27.5326 251.619 27.4712L242.027 27.0873L241.516 39.845Z" fill="#E50914"/>
<path d="M236.724 56.3706L234.725 56.2906L234.645 58.289L236.644 58.369L236.724 56.3706ZM238.044 23.373L238.124 21.3746L236.126 21.2946L236.046 23.293L238.044 23.373ZM258.109 24.9447L257.26 26.7554L257.289 26.7687L257.317 26.7812L258.109 24.9447ZM260.759 27.1644L259.019 28.1503L259.039 28.1857L259.06 28.2203L260.759 27.1644ZM261.831 30.3779L259.845 30.6105L259.845 30.6105L261.831 30.3779ZM261.48 37.9539L259.525 37.5306L259.521 37.5507L259.517 37.5709L261.48 37.9539ZM259.953 41.3035L258.377 40.0722L258.364 40.0887L258.351 40.1054L259.953 41.3035ZM256.505 43.4233L255.985 41.492L253.888 42.0565L254.623 44.1003L256.505 43.4233ZM261.52 57.363L261.44 59.3614L264.407 59.4801L263.402 56.686L261.52 57.363ZM257.107 57.1864L255.219 57.8453L255.667 59.1304L257.027 59.1848L257.107 57.1864ZM252.194 43.1067L253.16 41.355L248.585 38.8344L250.306 43.7656L252.194 43.1067ZM253.322 43.7283L253.794 45.6718L258.791 44.4581L254.288 41.9766L253.322 43.7283ZM252.501 43.8395L252.382 41.8431L252.382 41.8431L252.501 43.8395ZM241.372 43.4422L241.452 41.4438L239.454 41.3638L239.374 43.3622L241.372 43.4422ZM240.848 56.5357L240.768 58.5341L242.767 58.6141L242.847 56.6157L240.848 56.5357ZM241.516 39.845L239.518 39.7651L239.438 41.7635L241.436 41.8434L241.516 39.845ZM254.529 39.9815L254.075 38.0338L254.066 38.0359L254.057 38.0381L254.529 39.9815ZM256.592 38.8631L255.1 37.531L255.076 37.5579L255.053 37.5857L256.592 38.8631ZM257.534 36.9312L259.492 37.3387L259.494 37.3259L257.534 36.9312ZM257.758 31.3197L255.764 31.4784L255.768 31.524L255.774 31.5694L257.758 31.3197ZM257.069 29.3226L255.391 30.4097L255.427 30.4665L255.468 30.5207L257.069 29.3226ZM255.199 28.0468L254.491 29.9173L254.532 29.9327L254.573 29.9463L255.199 28.0468ZM242.027 27.0873L242.107 25.0889L240.108 25.0089L240.028 27.0073L242.027 27.0873ZM238.722 56.4506L240.043 23.453L236.046 23.293L234.725 56.2906L238.722 56.4506ZM237.964 25.3714L253.12 25.978L253.28 21.9812L238.124 21.3746L237.964 25.3714ZM253.12 25.978C255.068 26.056 256.406 26.3547 257.26 26.7554L258.959 23.1339C257.424 22.4142 255.488 22.0696 253.28 21.9812L253.12 25.978ZM257.317 26.7812C258.237 27.1777 258.74 27.658 259.019 28.1503L262.499 26.1785C261.701 24.7703 260.438 23.7707 258.901 23.1082L257.317 26.7812ZM259.06 28.2203C259.456 28.8579 259.731 29.64 259.845 30.6105L263.817 30.1452C263.645 28.6703 263.204 27.3101 262.457 26.1085L259.06 28.2203ZM259.845 30.6105C259.974 31.7182 260.016 32.9118 259.965 34.1943L263.962 34.3542C264.02 32.8869 263.974 31.4829 263.817 30.1452L259.845 30.6105ZM259.965 34.1943C259.923 35.2513 259.778 36.3627 259.525 37.5306L263.434 38.3771C263.732 37.005 263.909 35.6633 263.962 34.3542L259.965 34.1943ZM259.517 37.5709C259.335 38.5014 258.959 39.3271 258.377 40.0722L261.529 42.5348C262.499 41.2923 263.141 39.885 263.443 38.3368L259.517 37.5709ZM258.351 40.1054C257.945 40.648 257.236 41.1556 255.985 41.492L257.025 45.3546C258.883 44.8546 260.471 43.949 261.554 42.5015L258.351 40.1054ZM254.623 44.1003L259.638 58.04L263.402 56.686L258.387 42.7463L254.623 44.1003ZM261.6 55.3646L257.187 55.188L257.027 59.1848L261.44 59.3614L261.6 55.3646ZM258.996 56.5275L254.083 42.4478L250.306 43.7656L255.219 57.8453L258.996 56.5275ZM251.229 44.8583L252.357 45.4799L254.288 41.9766L253.16 41.355L251.229 44.8583ZM252.85 41.7848C252.774 41.8033 252.625 41.8285 252.382 41.8431L252.621 45.836C253.019 45.8122 253.418 45.7632 253.794 45.6718L252.85 41.7848ZM252.382 41.8431C252.157 41.8565 251.8 41.8579 251.284 41.8373L251.124 45.8341C251.696 45.8569 252.203 45.8609 252.621 45.836L252.382 41.8431ZM251.284 41.8373L241.452 41.4438L241.292 45.4406L251.124 45.8341L251.284 41.8373ZM239.374 43.3622L238.85 56.4557L242.847 56.6157L243.371 43.5221L239.374 43.3622ZM240.928 54.5373L236.803 54.3722L236.644 58.369L240.768 58.5341L240.928 54.5373ZM241.436 41.8434L250.693 42.2139L250.853 38.2171L241.596 37.8466L241.436 41.8434ZM250.693 42.2139C252.365 42.2808 253.831 42.2092 255.001 41.925L254.057 38.0381C253.416 38.1938 252.378 38.2782 250.853 38.2171L250.693 42.2139ZM254.983 41.9292C256.178 41.6507 257.321 41.1155 258.13 40.1406L255.053 37.5857C254.987 37.6646 254.756 37.875 254.075 38.0338L254.983 41.9292ZM258.083 40.1952C258.811 39.3808 259.269 38.4078 259.492 37.3387L255.575 36.5238C255.481 36.9792 255.311 37.2941 255.1 37.531L258.083 40.1952ZM259.494 37.3259C259.681 36.3997 259.791 35.3487 259.837 34.1892L255.84 34.0292C255.8 35.044 255.706 35.8743 255.573 36.5365L259.494 37.3259ZM259.837 34.1892C259.883 33.0317 259.858 31.9853 259.742 31.0701L255.774 31.5694C255.853 32.1992 255.881 33.0124 255.84 34.0292L259.837 34.1892ZM259.752 31.161C259.665 30.0649 259.338 29.016 258.671 28.1245L255.468 30.5207C255.591 30.6856 255.724 30.9681 255.764 31.4784L259.752 31.161ZM258.748 28.2355C258.056 27.1661 256.973 26.5255 255.825 26.1472L254.573 29.9463C255.195 30.1513 255.359 30.3612 255.391 30.4097L258.748 28.2355ZM255.907 26.1762C254.763 25.7433 253.323 25.5377 251.699 25.4728L251.539 29.4696C252.985 29.5274 253.932 29.7056 254.491 29.9173L255.907 26.1762ZM251.699 25.4728L242.107 25.0889L241.947 29.0857L251.539 29.4696L251.699 25.4728ZM240.028 27.0073L239.518 39.7651L243.515 39.925L244.025 27.1672L240.028 27.0073Z" fill="#E50914" mask="url(#path-13-outside-7_152_22)"/>
<mask id="path-15-outside-8_152_22" maskUnits="userSpaceOnUse" x="271.706" y="22.0139" width="28.4969" height="39.6626" fill="black">
<rect fill="white" x="271.706" y="22.0139" width="28.4969" height="39.6626"/>
<path d="M274.634 58.1207L276.855 25.1714L297.304 26.5499L297.066 30.0939L280.735 28.993L279.944 40.7264L294.503 41.7078L294.264 45.2518L279.705 44.2704L278.752 58.3983L274.634 58.1207Z"/>
</mask>
<path d="M274.634 58.1207L276.855 25.1714L297.304 26.5499L297.066 30.0939L280.735 28.993L279.944 40.7264L294.503 41.7078L294.264 45.2518L279.705 44.2704L278.752 58.3983L274.634 58.1207Z" fill="#E50914"/>
<path d="M274.634 58.1207L272.638 57.9861L272.504 59.9816L274.499 60.1161L274.634 58.1207ZM276.855 25.1714L276.989 23.176L274.994 23.0414L274.859 25.0369L276.855 25.1714ZM297.304 26.5499L299.3 26.6844L299.434 24.689L297.439 24.5545L297.304 26.5499ZM297.066 30.0939L296.931 32.0894L298.927 32.2239L299.061 30.2284L297.066 30.0939ZM280.735 28.993L280.869 26.9976L278.874 26.863L278.739 28.8585L280.735 28.993ZM279.944 40.7264L277.948 40.5919L277.814 42.5874L279.809 42.7219L279.944 40.7264ZM294.503 41.7078L296.498 41.8423L296.633 39.8469L294.637 39.7123L294.503 41.7078ZM294.264 45.2518L294.129 47.2472L296.125 47.3818L296.259 45.3863L294.264 45.2518ZM279.705 44.2704L279.839 42.2749L277.844 42.1404L277.709 44.1358L279.705 44.2704ZM278.752 58.3983L278.618 60.3938L280.613 60.5283L280.748 58.5328L278.752 58.3983ZM276.629 58.2552L278.85 25.3059L274.859 25.0369L272.638 57.9861L276.629 58.2552ZM276.72 27.1669L297.17 28.5454L297.439 24.5545L276.989 23.176L276.72 27.1669ZM295.309 26.4154L295.07 29.9594L299.061 30.2284L299.3 26.6844L295.309 26.4154ZM297.2 28.0984L280.869 26.9976L280.6 30.9885L296.931 32.0894L297.2 28.0984ZM278.739 28.8585L277.948 40.5919L281.939 40.8609L282.73 29.1275L278.739 28.8585ZM279.809 42.7219L294.368 43.7033L294.637 39.7123L280.078 38.7309L279.809 42.7219ZM292.507 41.5733L292.268 45.1173L296.259 45.3863L296.498 41.8423L292.507 41.5733ZM294.398 43.2563L279.839 42.2749L279.57 46.2658L294.129 47.2472L294.398 43.2563ZM277.709 44.1358L276.757 58.2638L280.748 58.5328L281.7 44.4049L277.709 44.1358ZM278.887 56.4028L274.768 56.1252L274.499 60.1161L278.618 60.3938L278.887 56.4028Z" fill="#E50914" mask="url(#path-15-outside-8_152_22)"/>
<mask id="path-17-outside-9_152_22" maskUnits="userSpaceOnUse" x="304.529" y="24.4232" width="28.3826" height="40.1344" fill="black">
<rect fill="white" x="304.529" y="24.4232" width="28.3826" height="40.1344"/>
<path d="M307.501 60.5282L310.533 27.6437L314.643 28.0226L311.947 57.2746L327.29 58.6889L326.955 62.3215L307.501 60.5282Z"/>
</mask>
<path d="M307.501 60.5282L310.533 27.6437L314.643 28.0226L311.947 57.2746L327.29 58.6889L326.955 62.3215L307.501 60.5282Z" fill="#E50914"/>
<path d="M307.501 60.5282L305.51 60.3446L305.326 62.3362L307.318 62.5198L307.501 60.5282ZM310.533 27.6437L310.716 25.6521L308.725 25.4685L308.541 27.4601L310.533 27.6437ZM314.643 28.0226L316.635 28.2062L316.818 26.2146L314.827 26.031L314.643 28.0226ZM311.947 57.2746L309.955 57.091L309.772 59.0825L311.763 59.2661L311.947 57.2746ZM327.29 58.6889L329.281 58.8725L329.465 56.8809L327.473 56.6974L327.29 58.6889ZM326.955 62.3215L326.771 64.3131L328.763 64.4967L328.946 62.5051L326.955 62.3215ZM309.493 60.7118L312.524 27.8272L308.541 27.4601L305.51 60.3446L309.493 60.7118ZM310.349 29.6352L314.46 30.0141L314.827 26.031L310.716 25.6521L310.349 29.6352ZM312.652 27.839L309.955 57.091L313.938 57.4581L316.635 28.2062L312.652 27.839ZM311.763 59.2661L327.106 60.6805L327.473 56.6974L312.13 55.283L311.763 59.2661ZM325.298 58.5053L324.963 62.1379L328.946 62.5051L329.281 58.8725L325.298 58.5053ZM327.138 60.33L307.685 58.5367L307.318 62.5198L326.771 64.3131L327.138 60.33Z" fill="#E50914" mask="url(#path-17-outside-9_152_22)"/>
<mask id="path-19-outside-10_152_22" maskUnits="userSpaceOnUse" x="335.312" y="27.4791" width="13.1596" height="38.7638" fill="black">
<rect fill="white" x="335.312" y="27.4791" width="13.1596" height="38.7638"/>
<path d="M338.317 63.5675L341.98 30.7473L346.082 31.2052L342.419 64.0254L338.317 63.5675Z"/>
</mask>
<path d="M338.317 63.5675L341.98 30.7473L346.082 31.2052L342.419 64.0254L338.317 63.5675Z" fill="#E50914"/>
<path d="M338.317 63.5675L336.329 63.3457L336.107 65.3333L338.095 65.5552L338.317 63.5675ZM341.98 30.7473L342.202 28.7597L340.214 28.5378L339.992 30.5255L341.98 30.7473ZM346.082 31.2052L348.07 31.4271L348.292 29.4394L346.304 29.2176L346.082 31.2052ZM342.419 64.0254L342.197 66.0131L344.185 66.2349L344.407 64.2473L342.419 64.0254ZM340.304 63.7894L343.967 30.9692L339.992 30.5255L336.329 63.3457L340.304 63.7894ZM341.758 32.735L345.86 33.1929L346.304 29.2176L342.202 28.7597L341.758 32.735ZM344.095 30.9834L340.431 63.8036L344.407 64.2473L348.07 31.4271L344.095 30.9834ZM342.641 62.0378L338.538 61.5799L338.095 65.5552L342.197 66.0131L342.641 62.0378Z" fill="#E50914" mask="url(#path-19-outside-10_152_22)"/>
<mask id="path-21-outside-11_152_22" maskUnits="userSpaceOnUse" x="349.158" y="29.0091" width="42.706" height="42.706" fill="black">
<rect fill="white" x="349.158" y="29.0091" width="42.706" height="42.706"/>
<path d="M353.777 65.2736L368.153 50.4904L358.349 32.5671L363.201 33.2167L370.997 47.3359L371.378 47.3868L382.66 35.8215L387.322 36.4457L373.168 51.0164L383.083 69.1968L378.278 68.5536L370.33 54.1234L369.95 54.0725L358.439 65.8977L353.777 65.2736Z"/>
</mask>
<path d="M353.777 65.2736L368.153 50.4904L358.349 32.5671L363.201 33.2167L370.997 47.3359L371.378 47.3868L382.66 35.8215L387.322 36.4457L373.168 51.0164L383.083 69.1968L378.278 68.5536L370.33 54.1234L369.95 54.0725L358.439 65.8977L353.777 65.2736Z" fill="#E50914"/>
<path d="M353.777 65.2736L352.343 63.8792L349.572 66.7286L353.511 67.2559L353.777 65.2736ZM368.153 50.4904L369.587 51.8848L370.617 50.8262L369.908 49.5306L368.153 50.4904ZM358.349 32.5671L358.614 30.5847L354.698 30.0605L356.594 33.5269L358.349 32.5671ZM363.201 33.2167L364.952 32.25L364.465 31.368L363.467 31.2344L363.201 33.2167ZM370.997 47.3359L369.246 48.3026L369.733 49.1845L370.732 49.3182L370.997 47.3359ZM371.378 47.3868L371.112 49.3691L372.108 49.5024L372.809 48.7834L371.378 47.3868ZM382.66 35.8215L382.925 33.8392L381.93 33.706L381.228 34.425L382.66 35.8215ZM387.322 36.4457L388.757 37.8393L391.524 34.9904L387.588 34.4634L387.322 36.4457ZM373.168 51.0164L371.733 49.6229L370.706 50.6801L371.412 51.9741L373.168 51.0164ZM383.083 69.1968L382.818 71.1791L386.728 71.7026L384.839 68.2392L383.083 69.1968ZM378.278 68.5536L376.526 69.5184L377.013 70.402L378.013 70.5359L378.278 68.5536ZM370.33 54.1234L372.082 53.1586L371.596 52.275L370.596 52.1411L370.33 54.1234ZM369.95 54.0725L370.215 52.0902L369.218 51.9567L368.517 52.6775L369.95 54.0725ZM358.439 65.8977L358.174 67.8801L359.171 68.0135L359.872 67.2928L358.439 65.8977ZM355.21 66.668L369.587 51.8848L366.719 49.0961L352.343 63.8792L355.21 66.668ZM369.908 49.5306L360.103 31.6072L356.594 33.5269L366.399 51.4503L369.908 49.5306ZM358.083 34.5494L362.936 35.199L363.467 31.2344L358.614 30.5847L358.083 34.5494ZM361.451 34.1834L369.246 48.3026L372.748 46.3692L364.952 32.25L361.451 34.1834ZM370.732 49.3182L371.112 49.3691L371.643 45.4045L371.262 45.3536L370.732 49.3182ZM372.809 48.7834L384.091 37.2181L381.228 34.425L369.946 45.9902L372.809 48.7834ZM382.394 37.8039L387.057 38.428L387.588 34.4634L382.925 33.8392L382.394 37.8039ZM385.888 35.0521L371.733 49.6229L374.602 52.41L388.757 37.8393L385.888 35.0521ZM371.412 51.9741L381.327 70.1544L384.839 68.2392L374.924 50.0588L371.412 51.9741ZM383.349 67.2145L378.543 66.5712L378.013 70.5359L382.818 71.1791L383.349 67.2145ZM380.03 67.5887L372.082 53.1586L368.579 55.0883L376.526 69.5184L380.03 67.5887ZM370.596 52.1411L370.215 52.0902L369.684 56.0548L370.065 56.1058L370.596 52.1411ZM368.517 52.6775L357.006 64.5027L359.872 67.2928L371.383 55.4675L368.517 52.6775ZM358.704 63.9154L354.042 63.2913L353.511 67.2559L358.174 67.8801L358.704 63.9154Z" fill="#E50914" mask="url(#path-21-outside-11_152_22)"/>
</svg>
