<svg width="678" height="86" viewBox="0 0 678 86" fill="none" xmlns="http://www.w3.org/2000/svg">
<path d="M672.703 13.6641C672.688 13.6641 672.68 13.6562 672.68 13.6406L672.703 13.6172C672.703 13.6328 672.703 13.6484 672.703 13.6641ZM666.234 68.0391C667.422 68.0391 668.531 67.8359 669.562 67.4297C670.594 67.0391 671.492 66.5234 672.258 65.8828C673.023 65.2422 673.617 64.5156 674.039 63.7031C674.477 62.8906 674.695 62.0703 674.695 61.2422C674.695 60.4766 674.492 59.7344 674.086 59.0156C673.68 58.2969 673.023 57.6562 672.117 57.0938C671.211 56.5312 670.039 56.0781 668.602 55.7344C667.18 55.4062 665.445 55.2422 663.398 55.2422C661.805 55.2422 660.219 55.2578 658.641 55.2891C657.078 55.3359 655.609 55.3906 654.234 55.4531C654.375 57.4688 654.82 59.2578 655.57 60.8203C656.336 62.3984 657.281 63.7188 658.406 64.7812C659.531 65.8438 660.773 66.6484 662.133 67.1953C663.508 67.7578 664.875 68.0391 666.234 68.0391ZM655.219 49.3594L658.219 47.6484L660.727 46.2422L662.859 45.0703L664.805 43.9453L669.117 41.3906C669.305 41.2969 669.477 41.25 669.633 41.25C669.805 41.25 669.938 41.3125 670.031 41.4375C670.125 41.5469 670.172 41.6875 670.172 41.8594C670.172 42.0781 670.086 42.3281 669.914 42.6094C669.742 42.875 669.477 43.1172 669.117 43.3359L666.305 45.0469L663.047 46.9453L659.18 49.1484L654.562 51.6797L654.352 51.75C654.289 52.2031 654.242 52.6328 654.211 53.0391C654.195 53.4609 654.188 53.8516 654.188 54.2109C655.891 53.9297 657.891 53.6719 660.188 53.4375C662.5 53.2188 664.93 53.1094 667.477 53.1094C669.336 53.1094 670.914 53.2891 672.211 53.6484C673.508 54.0078 674.562 54.4844 675.375 55.0781C676.203 55.6719 676.797 56.3594 677.156 57.1406C677.531 57.9219 677.719 58.7422 677.719 59.6016C677.719 60.6797 677.453 61.7656 676.922 62.8594C676.406 63.9531 675.703 64.9375 674.812 65.8125C673.922 66.6875 672.883 67.3984 671.695 67.9453C670.523 68.5078 669.273 68.7891 667.945 68.7891C666.836 68.7891 665.664 68.6641 664.43 68.4141C663.195 68.1641 661.961 67.7891 660.727 67.2891C659.508 66.8047 658.328 66.1953 657.188 65.4609C656.062 64.7266 655.039 63.875 654.117 62.9062C653.195 61.9375 652.414 60.8438 651.773 59.625C651.148 58.4219 650.734 57.1016 650.531 55.6641L648.352 55.8047C648.195 55.8203 648.047 55.8281 647.906 55.8281C647.781 55.8438 647.656 55.8516 647.531 55.8516C647.125 55.8516 646.805 55.8125 646.57 55.7344C646.352 55.6719 646.242 55.5391 646.242 55.3359C646.242 55.1016 646.547 54.7188 647.156 54.1875C647.781 53.6719 648.867 52.9531 650.414 52.0312C650.43 51.5 650.453 50.9609 650.484 50.4141L650.531 48.8203C650.562 48.3047 650.594 47.8438 650.625 47.4375C650.672 47.0156 650.719 46.6797 650.766 46.4297C649.5 47.3672 648.219 48.2422 646.922 49.0547C645.641 49.8672 644.367 50.5703 643.102 51.1641C641.852 51.7578 640.617 52.2266 639.398 52.5703C638.18 52.9141 637.008 53.0859 635.883 53.0859C635.07 53.0859 634.328 52.8984 633.656 52.5234C632.984 52.1484 632.375 51.6484 631.828 51.0234C631.281 50.3828 630.797 49.6406 630.375 48.7969C629.969 47.9531 629.625 47.0547 629.344 46.1016C629.078 45.1484 628.875 44.1719 628.734 43.1719C628.594 42.1719 628.523 41.2031 628.523 40.2656C628.523 38.5312 628.719 36.6797 629.109 34.7109C629.516 32.7422 630.031 30.7734 630.656 28.8047C631.281 26.8203 631.977 24.8906 632.742 23.0156C633.523 21.125 634.281 19.3906 635.016 17.8125C635.75 16.2188 636.422 14.8359 637.031 13.6641C637.656 12.4766 638.133 11.6016 638.461 11.0391C636.883 10.8047 635.195 10.5703 633.398 10.3359C631.617 10.1016 629.758 9.89062 627.82 9.70312C625.898 9.51562 623.906 9.36719 621.844 9.25781C619.797 9.13281 617.719 9.07031 615.609 9.07031C612.859 9.07031 610.461 9.17969 608.414 9.39844C606.367 9.60156 604.617 9.89844 603.164 10.2891C601.695 10.6641 600.492 11.1172 599.555 11.6484C598.617 12.1797 597.883 12.7734 597.352 13.4297C596.805 14.0703 596.43 14.7656 596.227 15.5156C596.008 16.25 595.898 17.0078 595.898 17.7891C595.898 18.5234 595.961 19.2734 596.086 20.0391C596.211 20.7891 596.352 21.5391 596.508 22.2891C596.648 23.0391 596.781 23.7812 596.906 24.5156C597.031 25.25 597.094 25.9531 597.094 26.625C597.094 27.5781 596.914 28.4688 596.555 29.2969C596.18 30.1094 595.492 30.8047 594.492 31.3828C594.477 31.3984 594.445 31.4062 594.398 31.4062C594.32 31.4062 594.258 31.3828 594.211 31.3359C594.164 31.2891 594.133 31.2422 594.117 31.1953C594.086 31.1328 594.07 31.0781 594.07 31.0312V30.9375C594.07 30.9062 594.094 30.8828 594.141 30.8672C594.172 30.8359 594.203 30.8047 594.234 30.7734L594.398 30.7031C594.398 30.6719 594.32 30.5234 594.164 30.2578C594.008 29.9766 593.82 29.6016 593.602 29.1328C593.367 28.6641 593.117 28.1172 592.852 27.4922C592.57 26.8672 592.32 26.1875 592.102 25.4531C591.867 24.7188 591.672 23.9375 591.516 23.1094C591.359 22.2812 591.281 21.4375 591.281 20.5781C591.281 19.5469 591.422 18.5156 591.703 17.4844C591.984 16.4375 592.484 15.4375 593.203 14.4844C593.906 13.5156 594.852 12.6172 596.039 11.7891C597.227 10.9609 598.734 10.2422 600.562 9.63281C602.375 9.00781 604.531 8.52344 607.031 8.17969C609.531 7.82031 612.445 7.64062 615.773 7.64062C616.664 7.64062 617.734 7.67969 618.984 7.75781C620.234 7.82031 621.617 7.91406 623.133 8.03906L628.008 8.50781C629.742 8.66406 631.531 8.83594 633.375 9.02344L639 9.63281L644.719 10.2656L643.406 13.0078L641.719 16.5469L639.844 20.6953L637.945 25.2422C637.32 26.7891 636.727 28.3594 636.164 29.9531C635.617 31.5312 635.133 33.0781 634.711 34.5938C634.289 36.1094 633.953 37.5703 633.703 38.9766C633.453 40.3828 633.328 41.6875 633.328 42.8906C633.328 43.8438 633.391 44.8125 633.516 45.7969C633.641 46.7812 633.844 47.6797 634.125 48.4922C634.422 49.2891 634.812 49.9453 635.297 50.4609C635.797 50.9609 636.414 51.2109 637.148 51.2109C637.992 51.2109 638.961 50.9766 640.055 50.5078C641.164 50.0234 642.344 49.375 643.594 48.5625C644.859 47.7344 646.18 46.7734 647.555 45.6797C648.945 44.5859 650.344 43.4141 651.75 42.1641C652.516 39.4453 653.531 36.6953 654.797 33.9141C656.062 31.1172 657.508 28.375 659.133 25.6875C660.758 23 662.516 20.4219 664.406 17.9531C666.312 15.4844 668.281 13.2109 670.312 11.1328C670.328 11.0859 670.398 11.0625 670.523 11.0625C670.82 11.0625 671.086 11.1406 671.32 11.2969C671.555 11.4375 671.75 11.625 671.906 11.8594C672.078 12.0781 672.219 12.3203 672.328 12.5859C672.453 12.8359 672.547 13.0703 672.609 13.2891C672.594 13.2734 672.57 13.2656 672.539 13.2656C672.398 13.2656 672.125 13.5 671.719 13.9688C671.312 14.4219 670.805 15.0703 670.195 15.9141C669.602 16.7422 668.93 17.7422 668.18 18.9141L665.789 22.7812L663.188 27.3516C662.359 28.8984 661.492 30.6016 660.586 32.4609C660.055 33.5547 659.516 34.7656 658.969 36.0938C658.391 37.4688 657.828 38.9219 657.281 40.4531C656.75 41.9688 656.258 43.5156 655.805 45.0938C655.352 46.6719 654.984 48.1875 654.703 49.6406L655.219 49.3594ZM672.609 13.2891C672.656 13.3359 672.68 13.4375 672.68 13.5938C672.68 13.5312 672.656 13.4297 672.609 13.2891Z" fill="#EE2828"/>
<path d="M619.406 41.3906C619.594 41.2969 619.766 41.25 619.922 41.25C620.094 41.25 620.227 41.3125 620.32 41.4375C620.414 41.5469 620.461 41.6875 620.461 41.8594C620.461 42.0781 620.375 42.3281 620.203 42.6094C620.031 42.875 619.766 43.1172 619.406 43.3359C618.516 43.8672 617.57 44.4297 616.57 45.0234C615.586 45.6172 614.586 46.2188 613.57 46.8281C612.57 47.4219 611.57 48 610.57 48.5625C609.586 49.1094 608.648 49.6016 607.758 50.0391C606.883 50.4609 606.078 50.8125 605.344 51.0938C604.625 51.375 604.016 51.5391 603.516 51.5859C603.516 51.6484 603.32 51.7891 602.93 52.0078C602.539 52.2422 602.055 52.4844 601.477 52.7344C600.914 52.9844 600.312 53.2109 599.672 53.4141C599.031 53.6172 598.461 53.7188 597.961 53.7188C597.57 53.7188 597.242 53.6328 596.977 53.4609C596.727 53.3047 596.602 53.0234 596.602 52.6172C596.602 52.5859 596.609 52.5312 596.625 52.4531C596.641 52.375 596.648 52.3125 596.648 52.2656L590.859 18.2812C588.797 23.5469 586.938 28.3203 585.281 32.6016C583.641 36.8672 582.055 40.6094 580.523 43.8281C581.914 44.1562 583.109 44.5859 584.109 45.1172C585.125 45.6484 585.961 46.2578 586.617 46.9453C587.273 47.6172 587.758 48.3672 588.07 49.1953C588.383 50.0234 588.539 50.8906 588.539 51.7969C588.539 52.7812 588.344 53.8438 587.953 54.9844C587.578 56.1406 587.047 57.3047 586.359 58.4766C585.688 59.6641 584.883 60.8359 583.945 61.9922C583.008 63.1484 581.984 64.2266 580.875 65.2266C580.75 65.3359 580.562 65.4688 580.312 65.625C580.078 65.7969 579.82 65.9609 579.539 66.1172C579.273 66.2734 579.008 66.4062 578.742 66.5156C578.492 66.625 578.289 66.6797 578.133 66.6797C577.992 66.6797 577.922 66.6172 577.922 66.4922C577.922 66.3516 578.031 66.0859 578.25 65.6953C579.094 64.2578 579.992 62.9062 580.945 61.6406C581.914 60.375 582.797 59.1641 583.594 58.0078C584.406 56.8672 585.078 55.7734 585.609 54.7266C586.141 53.6797 586.406 52.6484 586.406 51.6328C586.406 50.8828 586.281 50.1797 586.031 49.5234C585.781 48.8516 585.383 48.25 584.836 47.7188C584.305 47.1719 583.617 46.7031 582.773 46.3125C581.945 45.9219 580.938 45.6172 579.75 45.3984C579.109 47.4453 578.188 49.2188 576.984 50.7188C575.797 52.2188 574.477 53.4609 573.023 54.4453C571.57 55.4453 570.055 56.1875 568.477 56.6719C566.914 57.1562 565.438 57.3984 564.047 57.3984C563.141 57.3984 562.305 57.2969 561.539 57.0938C560.758 56.8906 560.086 56.5859 559.523 56.1797C558.945 55.7891 558.492 55.2969 558.164 54.7031C557.836 54.125 557.672 53.4453 557.672 52.6641C557.672 51.9922 557.859 51.2891 558.234 50.5547C558.609 49.8047 559.133 49.0703 559.805 48.3516C560.477 47.6328 561.281 46.9531 562.219 46.3125C563.156 45.6719 564.188 45.1094 565.312 44.625C566.438 44.1406 567.641 43.7578 568.922 43.4766C570.203 43.1797 571.523 43.0312 572.883 43.0312C573.539 43.0312 574.164 43.0469 574.758 43.0781C575.352 43.1094 575.922 43.1484 576.469 43.1953C577.359 41.4141 578.25 39.5391 579.141 37.5703C580.031 35.6016 580.914 33.6172 581.789 31.6172C582.664 29.6172 583.523 27.6328 584.367 25.6641C585.227 23.6953 586.062 21.8203 586.875 20.0391C587.703 18.2422 588.508 16.5859 589.289 15.0703C590.07 13.5391 590.82 12.2188 591.539 11.1094C592.258 10 592.945 9.13281 593.602 8.50781C594.273 7.86719 594.906 7.54688 595.5 7.54688C595.844 7.54688 596.133 7.61719 596.367 7.75781C596.602 7.88281 596.781 8.05469 596.906 8.27344C597.047 8.47656 597.141 8.71875 597.188 9C597.25 9.28125 597.281 9.5625 597.281 9.84375C597.281 10.0938 597.266 10.3438 597.234 10.5938C597.203 10.8281 597.172 11.0469 597.141 11.25C597.109 11.4375 597.078 11.6016 597.047 11.7422C597.016 11.8672 597 11.9375 597 11.9531L602.953 46.9453L615.656 14.8828C615.891 14.3203 616.172 13.7266 616.5 13.1016C616.844 12.4609 617.219 11.875 617.625 11.3438C618.031 10.7969 618.469 10.3438 618.938 9.98438C619.406 9.625 619.898 9.44531 620.414 9.44531C620.945 9.44531 621.367 9.49219 621.68 9.58594C622.008 9.66406 622.258 9.76562 622.43 9.89062C622.617 10.0156 622.742 10.1641 622.805 10.3359C622.883 10.4922 622.938 10.6484 622.969 10.8047L604.781 48.9141C605.984 48.5391 607.18 48.0781 608.367 47.5312C609.555 46.9688 610.75 46.3594 611.953 45.7031C613.156 45.0469 614.375 44.3516 615.609 43.6172C616.844 42.8828 618.109 42.1406 619.406 41.3906ZM575.555 45.0234C575.555 44.9609 575.523 44.9297 575.461 44.9297C574.305 44.9297 573.133 45.0547 571.945 45.3047C570.758 45.5547 569.609 45.8906 568.5 46.3125C567.391 46.7344 566.344 47.2266 565.359 47.7891C564.391 48.3359 563.539 48.9141 562.805 49.5234C562.07 50.1328 561.492 50.7422 561.07 51.3516C560.648 51.9766 560.438 52.5625 560.438 53.1094C560.438 54 560.719 54.6562 561.281 55.0781C561.844 55.5156 562.578 55.7344 563.484 55.7344C564.438 55.7344 565.508 55.5 566.695 55.0312C567.883 54.5625 569.047 53.875 570.188 52.9688C571.344 52.0625 572.398 50.9453 573.352 49.6172C574.32 48.2891 575.055 46.7578 575.555 45.0234Z" fill="#EE2828"/>
<path d="M556.5 46.5C555.766 46.5 555.219 46.3281 554.859 45.9844C554.5 45.625 554.32 45.25 554.32 44.8594C554.32 44.5156 554.445 44.2188 554.695 43.9688C554.945 43.7031 555.32 43.5703 555.82 43.5703C556.133 43.5703 556.469 43.5625 556.828 43.5469C557.203 43.5312 557.555 43.5156 557.883 43.5C558.211 43.4688 558.5 43.4375 558.75 43.4062C559.016 43.3594 559.195 43.3047 559.289 43.2422L562.383 41.3906C562.57 41.2969 562.742 41.25 562.898 41.25C563.07 41.25 563.203 41.3125 563.297 41.4375C563.391 41.5469 563.438 41.6875 563.438 41.8594C563.438 42.1406 563.344 42.3984 563.156 42.6328C562.984 42.8516 562.719 43.0781 562.359 43.3125C562 43.5469 561.555 43.8125 561.023 44.1094C560.508 44.4062 559.906 44.7656 559.219 45.1875C559.234 45.3125 559.242 45.4297 559.242 45.5391C559.242 45.6484 559.242 45.7578 559.242 45.8672C559.242 48.0078 558.852 49.9219 558.07 51.6094C557.305 53.2969 556.266 54.7812 554.953 56.0625C553.641 57.3594 552.117 58.4609 550.383 59.3672C548.664 60.2734 546.852 61.0078 544.945 61.5703C543.055 62.1484 541.133 62.5703 539.18 62.8359C537.227 63.1016 535.359 63.2344 533.578 63.2344C531.469 63.2344 529.547 62.9766 527.812 62.4609C526.078 61.9609 524.523 61.25 523.148 60.3281C521.789 59.4219 520.602 58.3359 519.586 57.0703C518.586 55.8203 517.75 54.4453 517.078 52.9453C516.422 51.4609 515.938 49.8828 515.625 48.2109C515.297 46.5391 515.133 44.8281 515.133 43.0781C515.133 41.0469 515.352 39.0156 515.789 36.9844C516.211 34.9375 516.836 32.9766 517.664 31.1016C518.508 29.2266 519.547 27.4766 520.781 25.8516C522.016 24.2266 523.438 22.8203 525.047 21.6328C526.656 20.4297 528.445 19.4844 530.414 18.7969C532.398 18.1094 534.555 17.7656 536.883 17.7656C537.727 17.7656 538.523 17.7969 539.273 17.8594C540.023 17.9062 540.734 17.9844 541.406 18.0938C542.219 16.3125 543.148 14.6328 544.195 13.0547C545.258 11.4609 546.406 10.0703 547.641 8.88281C548.891 7.69531 550.227 6.75781 551.648 6.07031C553.07 5.36719 554.562 5.01562 556.125 5.01562C557.25 5.01562 558.156 5.25781 558.844 5.74219C559.531 6.22656 560.07 6.86719 560.461 7.66406C561.07 6.74219 561.68 5.875 562.289 5.0625C562.898 4.25 563.453 3.53125 563.953 2.90625C564.453 2.28125 564.883 1.78125 565.242 1.40625C565.602 1.03125 565.836 0.820312 565.945 0.773438C566.055 0.898438 566.188 1.03906 566.344 1.19531C566.516 1.35156 566.68 1.51562 566.836 1.6875C566.992 1.85938 567.133 2.03906 567.258 2.22656C567.398 2.39844 567.492 2.5625 567.539 2.71875C567.305 2.98438 566.961 3.35938 566.508 3.84375C566.055 4.32812 565.539 4.89844 564.961 5.55469C564.383 6.19531 563.766 6.89844 563.109 7.66406C562.453 8.42969 561.812 9.22656 561.188 10.0547C561.25 10.4141 561.289 10.7812 561.305 11.1562C561.336 11.5312 561.352 11.9062 561.352 12.2812C561.352 13.2969 561.25 14.3672 561.047 15.4922C560.844 16.6016 560.562 17.6328 560.203 18.5859C559.844 19.5391 559.414 20.3281 558.914 20.9531C558.414 21.5625 557.867 21.8672 557.273 21.8672C556.961 21.8672 556.688 21.7891 556.453 21.6328C556.234 21.4766 556.055 21.2656 555.914 21C555.773 20.7344 555.664 20.4297 555.586 20.0859C555.523 19.7266 555.492 19.3438 555.492 18.9375C555.492 18.3281 555.586 17.6562 555.773 16.9219C555.977 16.1875 556.242 15.4141 556.57 14.6016C556.914 13.7734 557.32 12.9219 557.789 12.0469C558.273 11.1562 558.797 10.2578 559.359 9.35156C559.094 8.69531 558.68 8.15625 558.117 7.73438C557.57 7.29688 556.805 7.07812 555.82 7.07812C554.648 7.07812 553.523 7.40625 552.445 8.0625C551.383 8.71875 550.375 9.60156 549.422 10.7109C548.484 11.8047 547.609 13.0703 546.797 14.5078C545.984 15.9297 545.25 17.4062 544.594 18.9375C546.625 19.75 548.141 21.0469 549.141 22.8281C550.156 24.6094 550.664 26.9922 550.664 29.9766C550.664 30.7734 550.625 31.6016 550.547 32.4609C550.484 33.3047 550.391 34.2031 550.266 35.1562C549.672 39.375 548.734 42.5234 547.453 44.6016C546.172 46.6797 544.656 47.7188 542.906 47.7188C542.062 47.7188 541.305 47.4375 540.633 46.875C539.961 46.3125 539.391 45.5234 538.922 44.5078C538.453 43.4766 538.094 42.2422 537.844 40.8047C537.594 39.3672 537.469 37.7656 537.469 36C537.469 34.8281 537.523 33.6094 537.633 32.3438C537.758 31.0625 537.945 29.75 538.195 28.4062C538.445 27.0469 538.766 25.6719 539.156 24.2812C539.547 22.8906 540.023 21.4922 540.586 20.0859C539.992 20.0078 539.375 19.9531 538.734 19.9219C538.109 19.875 537.461 19.8516 536.789 19.8516C535.227 19.8516 533.781 20.1562 532.453 20.7656C531.141 21.375 529.945 22.2109 528.867 23.2734C527.789 24.3359 526.836 25.5938 526.008 27.0469C525.195 28.4844 524.508 30.0391 523.945 31.7109C523.383 33.3828 522.961 35.1328 522.68 36.9609C522.398 38.7734 522.258 40.5938 522.258 42.4219C522.258 44.0469 522.367 45.6484 522.586 47.2266C522.82 48.7891 523.172 50.2734 523.641 51.6797C524.109 53.0859 524.695 54.3828 525.398 55.5703C526.117 56.7578 526.953 57.7812 527.906 58.6406C528.859 59.5156 529.938 60.1953 531.141 60.6797C532.344 61.1641 533.68 61.4062 535.148 61.4062C536.383 61.4062 537.703 61.2969 539.109 61.0781C540.516 60.875 541.938 60.5312 543.375 60.0469C544.812 59.5625 546.242 58.9297 547.664 58.1484C549.086 57.3672 550.422 56.4062 551.672 55.2656C552.938 54.1406 554.086 52.8125 555.117 51.2812C556.164 49.7656 557.031 48.0312 557.719 46.0781C557.531 46.1719 557.344 46.2656 557.156 46.3594C556.969 46.4531 556.75 46.5 556.5 46.5ZM549.094 34.9688C549.203 34.2031 549.281 33.4766 549.328 32.7891C549.375 32.0859 549.398 31.4219 549.398 30.7969C549.398 29.375 549.266 28.125 549 27.0469C548.75 25.9531 548.383 25.0078 547.898 24.2109C547.43 23.4141 546.844 22.7422 546.141 22.1953C545.453 21.6484 544.672 21.2031 543.797 20.8594C543.094 22.7031 542.516 24.4844 542.062 26.2031C541.625 27.9062 541.32 29.375 541.148 30.6094C540.977 31.875 540.836 33.1641 540.727 34.4766C540.617 35.7734 540.562 37.0547 540.562 38.3203C540.562 39.3828 540.609 40.3906 540.703 41.3438C540.797 42.2812 540.945 43.1016 541.148 43.8047C541.367 44.5078 541.641 45.0625 541.969 45.4688C542.312 45.875 542.734 46.0781 543.234 46.0781C543.75 46.0781 544.289 45.8906 544.852 45.5156C545.414 45.1406 545.961 44.5234 546.492 43.6641C547.023 42.7891 547.516 41.6484 547.969 40.2422C548.422 38.8203 548.797 37.0625 549.094 34.9688ZM559.688 15C559.734 14.6406 559.773 14.2422 559.805 13.8047C559.852 13.3516 559.875 12.8906 559.875 12.4219V11.9062C558.984 13.1875 558.266 14.4375 557.719 15.6562C557.188 16.8594 556.922 17.9531 556.922 18.9375C556.922 19.2969 556.969 19.5938 557.062 19.8281C557.156 20.0625 557.312 20.1797 557.531 20.1797C557.781 20.1797 558.016 20.0312 558.234 19.7344C558.453 19.4375 558.656 19.0469 558.844 18.5625C559.031 18.0781 559.195 17.5234 559.336 16.8984C559.477 16.2734 559.594 15.6406 559.688 15Z" fill="#EE2828"/>
<path d="M517.055 41.3906C517.242 41.2969 517.414 41.25 517.57 41.25C517.742 41.25 517.875 41.3125 517.969 41.4375C518.062 41.5469 518.109 41.6875 518.109 41.8594C518.109 42.0781 518.023 42.3281 517.852 42.6094C517.68 42.875 517.414 43.1172 517.055 43.3359L513.562 45.375C512.438 46.0312 511.133 46.8047 509.648 47.6953C508.164 48.5703 506.523 49.5469 504.727 50.625C503.07 51.6094 501.68 52.2969 500.555 52.6875C499.445 53.0938 498.516 53.2969 497.766 53.2969C497.266 53.2969 496.852 53.2188 496.523 53.0625C496.195 52.9219 495.922 52.7266 495.703 52.4766C495.5 52.2422 495.352 51.9688 495.258 51.6562C495.18 51.3438 495.141 51.0234 495.141 50.6953C495.141 49.8203 495.227 48.7109 495.398 47.3672C495.586 46.0234 495.828 44.5391 496.125 42.9141C496.438 41.2734 496.789 39.5469 497.18 37.7344C497.586 35.9219 498.008 34.1094 498.445 32.2969C498.883 30.4688 499.32 28.6875 499.758 26.9531C500.195 25.2188 500.602 23.6172 500.977 22.1484C501.367 20.6797 501.711 19.3984 502.008 18.3047C502.32 17.1953 502.555 16.3672 502.711 15.8203L480.375 49.9453C480.375 49.9609 480.297 50.0859 480.141 50.3203C479.984 50.5547 479.773 50.8125 479.508 51.0938C479.242 51.375 478.922 51.625 478.547 51.8438C478.188 52.0781 477.789 52.1953 477.352 52.1953C476.945 52.1953 476.68 52.0781 476.555 51.8438C476.445 51.6094 476.391 51.375 476.391 51.1406C476.391 51.0469 476.391 50.9531 476.391 50.8594C476.406 50.75 476.43 50.6797 476.461 50.6484L478.852 25.5469C478.211 26.6562 477.414 27.9922 476.461 29.5547C475.523 31.1016 474.461 32.7734 473.273 34.5703C472.102 36.3516 470.82 38.2188 469.43 40.1719C468.055 42.1094 466.609 44.0234 465.094 45.9141C465.516 46.8828 465.727 47.9219 465.727 49.0312C465.727 49.8906 465.602 50.7578 465.352 51.6328C465.117 52.5078 464.766 53.3516 464.297 54.1641C463.844 54.9766 463.281 55.7344 462.609 56.4375C461.953 57.1562 461.203 57.7734 460.359 58.2891C459.531 58.8203 458.617 59.2344 457.617 59.5312C456.617 59.8281 455.547 59.9766 454.406 59.9766C454.359 59.9766 454.297 59.9453 454.219 59.8828C454.156 59.8203 454.094 59.7422 454.031 59.6484C453.984 59.5547 453.938 59.4531 453.891 59.3438C453.844 59.2344 453.82 59.1406 453.82 59.0625C453.82 59.0312 453.836 58.9922 453.867 58.9453C453.914 58.8984 453.969 58.875 454.031 58.875C455.344 58.875 456.578 58.5781 457.734 57.9844C458.906 57.4062 459.922 56.6562 460.781 55.7344C461.656 54.8281 462.344 53.8125 462.844 52.6875C463.359 51.5781 463.617 50.4844 463.617 49.4062C463.617 48.8438 463.547 48.3047 463.406 47.7891C462.016 49.2734 460.586 50.6719 459.117 51.9844C457.648 53.2969 456.164 54.4375 454.664 55.4062C453.18 56.3906 451.688 57.1641 450.188 57.7266C448.688 58.3047 447.211 58.5938 445.758 58.5938C444.617 58.5938 443.586 58.4844 442.664 58.2656C441.742 58.0625 440.953 57.7344 440.297 57.2812C439.641 56.8438 439.133 56.2734 438.773 55.5703C438.414 54.8672 438.234 54.0312 438.234 53.0625C438.234 51.7812 438.516 50.6016 439.078 49.5234C439.625 48.4453 440.352 47.4688 441.258 46.5938C442.18 45.7188 443.242 44.9453 444.445 44.2734C445.648 43.6016 446.898 43.0469 448.195 42.6094C449.508 42.1562 450.812 41.8203 452.109 41.6016C453.422 41.3672 454.648 41.25 455.789 41.25C457.445 41.25 458.867 41.4375 460.055 41.8125C461.258 42.1719 462.266 42.6797 463.078 43.3359C465 40.9766 466.852 38.4922 468.633 35.8828C470.43 33.2734 472.062 30.6484 473.531 28.0078C475 25.3672 476.258 22.7734 477.305 20.2266C478.352 17.6641 479.094 15.2578 479.531 13.0078C479.531 12.9766 479.586 12.7422 479.695 12.3047C479.805 11.8516 479.969 11.3047 480.188 10.6641C480.406 10.0078 480.664 9.30469 480.961 8.55469C481.273 7.80469 481.617 7.11719 481.992 6.49219C482.383 5.85156 482.805 5.32031 483.258 4.89844C483.727 4.47656 484.227 4.26562 484.758 4.26562C485.195 4.26562 485.547 4.36719 485.812 4.57031C486.078 4.75781 486.281 5 486.422 5.29688C486.578 5.57812 486.68 5.89844 486.727 6.25781C486.789 6.61719 486.82 6.96094 486.82 7.28906C486.82 7.47656 486.812 7.65625 486.797 7.82812C486.797 8 486.789 8.14844 486.773 8.27344L482.344 42.9375L504.258 9.98438C504.305 9.59375 504.383 9.17969 504.492 8.74219C504.617 8.28906 504.789 7.875 505.008 7.5C505.242 7.10938 505.531 6.78906 505.875 6.53906C506.234 6.28906 506.672 6.16406 507.188 6.16406C507.719 6.16406 508.133 6.21094 508.43 6.30469C508.742 6.38281 508.977 6.48438 509.133 6.60938C509.289 6.73438 509.383 6.88281 509.414 7.05469C509.461 7.21094 509.484 7.36719 509.484 7.52344C509.484 8.47656 509.344 9.72656 509.062 11.2734C508.797 12.8203 508.438 14.5547 507.984 16.4766C507.531 18.3828 507.016 20.4141 506.438 22.5703C505.859 24.7266 505.273 26.8906 504.68 29.0625C504.086 31.2188 503.5 33.3281 502.922 35.3906C502.344 37.4375 501.828 39.3125 501.375 41.0156C500.922 42.7188 500.555 44.1875 500.273 45.4219C500.008 46.6562 499.875 47.5391 499.875 48.0703C499.875 48.2578 499.883 48.4688 499.898 48.7031C499.93 48.9375 499.992 49.1562 500.086 49.3594C500.18 49.5469 500.32 49.7109 500.508 49.8516C500.695 49.9922 500.953 50.0625 501.281 50.0625C501.594 50.0625 501.984 49.9844 502.453 49.8281C502.938 49.6562 503.539 49.3672 504.258 48.9609C506.68 47.5859 508.961 46.2656 511.102 45C513.242 43.7188 515.227 42.5156 517.055 41.3906ZM446.109 57.0469C446.938 57.0469 447.922 56.75 449.062 56.1562C450.219 55.5625 451.469 54.7344 452.812 53.6719C454.156 52.625 455.57 51.375 457.055 49.9219C458.539 48.4531 460.031 46.8594 461.531 45.1406C460.922 44.6875 460.148 44.3281 459.211 44.0625C458.289 43.7969 457.195 43.6641 455.93 43.6641C454.836 43.6641 453.703 43.7578 452.531 43.9453C451.359 44.1328 450.203 44.4062 449.062 44.7656C447.938 45.125 446.867 45.5703 445.852 46.1016C444.836 46.6172 443.945 47.2266 443.18 47.9297C442.43 48.6172 441.828 49.3906 441.375 50.25C440.922 51.0938 440.695 52.0156 440.695 53.0156C440.695 54.4219 441.18 55.4453 442.148 56.0859C443.117 56.7266 444.438 57.0469 446.109 57.0469Z" fill="#EE2828"/>
<path d="M426.75 41.3906C426.938 41.2969 427.109 41.25 427.266 41.25C427.438 41.25 427.57 41.3125 427.664 41.4375C427.758 41.5469 427.805 41.6875 427.805 41.8594C427.805 42.0781 427.719 42.3281 427.547 42.6094C427.375 42.875 427.109 43.1172 426.75 43.3359C424.672 44.5547 422.617 45.7734 420.586 46.9922C418.57 48.1953 416.648 49.2812 414.82 50.25C412.992 51.2188 411.297 52 409.734 52.5938C408.172 53.2031 406.805 53.5078 405.633 53.5078C405.023 53.5078 404.477 53.4141 403.992 53.2266C403.523 53.0391 403.125 52.7422 402.797 52.3359C402.469 51.9297 402.211 51.4141 402.023 50.7891C401.852 50.1484 401.766 49.375 401.766 48.4688C401.766 47.8125 401.812 47.0859 401.906 46.2891C402.016 45.4922 402.172 44.6016 402.375 43.6172C402.594 42.5703 402.883 41.4922 403.242 40.3828C403.602 39.2734 403.977 38.1953 404.367 37.1484C404.758 36.0859 405.133 35.0938 405.492 34.1719C405.852 33.25 406.133 32.4609 406.336 31.8047C405.977 31.8516 405.648 31.875 405.352 31.875C404.273 31.875 403.336 31.6797 402.539 31.2891C401.758 30.8828 401.109 30.3516 400.594 29.6953C400.094 29.0234 399.719 28.25 399.469 27.375C399.219 26.5 399.094 25.5938 399.094 24.6562C399.094 23.5312 399.266 22.4062 399.609 21.2812C399.953 20.1562 400.453 19.1484 401.109 18.2578C401.781 17.3672 402.594 16.6406 403.547 16.0781C404.516 15.5156 405.617 15.2344 406.852 15.2344C408.367 15.2344 409.602 15.4844 410.555 15.9844C411.508 16.4844 412.25 17.1406 412.781 17.9531C413.328 18.75 413.695 19.6562 413.883 20.6719C414.07 21.6719 414.164 22.6797 414.164 23.6953C414.164 24.3984 414.133 25.0859 414.07 25.7578C414.023 26.4297 413.969 27.0547 413.906 27.6328C413.844 28.1953 413.781 28.7031 413.719 29.1562C413.672 29.6094 413.648 29.9609 413.648 30.2109C416.133 29.4922 418.211 28.5938 419.883 27.5156C421.57 26.4375 422.922 25.2578 423.938 23.9766C424.969 22.6797 425.703 21.3125 426.141 19.875C426.578 18.4219 426.797 16.9688 426.797 15.5156C426.797 13.4688 426.398 11.6953 425.602 10.1953C424.82 8.69531 423.75 7.46094 422.391 6.49219C421.047 5.50781 419.469 4.78125 417.656 4.3125C415.859 3.84375 413.945 3.60938 411.914 3.60938C409.305 3.60938 406.539 3.92969 403.617 4.57031C402.758 7.99219 401.852 11.2031 400.898 14.2031C399.945 17.1875 398.984 19.9531 398.016 22.5C397.047 25.0312 396.102 27.3438 395.18 29.4375C394.258 31.5312 393.391 33.3984 392.578 35.0391C391.766 36.6641 391.039 38.0547 390.398 39.2109C389.758 40.3672 389.242 41.2891 388.852 41.9766C390.008 42.8672 391.039 43.6328 391.945 44.2734C392.852 44.8984 393.641 45.4375 394.312 45.8906C394.984 46.3438 395.547 46.7266 396 47.0391C396.453 47.3359 396.812 47.6016 397.078 47.8359L396.68 48.4922C396.445 48.4922 396.109 48.4062 395.672 48.2344C395.25 48.0625 394.773 47.8359 394.242 47.5547C393.711 47.2734 393.148 46.9531 392.555 46.5938C391.961 46.2344 391.383 45.8594 390.82 45.4688C390.273 45.0781 389.766 44.6953 389.297 44.3203C388.828 43.9453 388.453 43.6016 388.172 43.2891C387.406 44.5703 386.492 45.7109 385.43 46.7109C384.383 47.7109 383.219 48.5625 381.938 49.2656C380.672 49.9531 379.305 50.4766 377.836 50.8359C376.367 51.1953 374.828 51.375 373.219 51.375C371.469 51.375 369.82 51.2422 368.273 50.9766C366.727 50.6953 365.234 50.1328 363.797 49.2891C363.516 49.1484 363.227 48.9922 362.93 48.8203C362.633 48.6484 362.359 48.4766 362.109 48.3047C361.859 48.1172 361.648 47.9453 361.477 47.7891C361.305 47.6172 361.203 47.4609 361.172 47.3203H361.594C361.625 47.3203 361.93 47.4531 362.508 47.7188C363.102 47.9688 363.859 48.25 364.781 48.5625C365.703 48.8594 366.742 49.1328 367.898 49.3828C369.055 49.6328 370.219 49.7578 371.391 49.7578C372.547 49.7578 373.641 49.6172 374.672 49.3359C375.703 49.0547 376.656 48.6719 377.531 48.1875C378.422 47.7031 379.227 47.1484 379.945 46.5234C380.664 45.8828 381.297 45.2188 381.844 44.5312C382.391 43.8281 382.844 43.125 383.203 42.4219C383.578 41.7031 383.852 41.0234 384.023 40.3828C382.32 39.0547 380.859 37.7422 379.641 36.4453C378.438 35.1484 377.445 33.8672 376.664 32.6016C375.898 31.3359 375.336 30.0938 374.977 28.875C374.617 27.6562 374.438 26.4609 374.438 25.2891C374.438 23.5234 374.805 21.8281 375.539 20.2031C376.289 18.5781 377.312 17.0469 378.609 15.6094C379.922 14.1562 381.461 12.8125 383.227 11.5781C385.008 10.3281 386.93 9.19531 388.992 8.17969C391.055 7.16406 393.211 6.28125 395.461 5.53125C397.727 4.76562 400 4.14844 402.281 3.67969C402.547 3.07031 402.805 2.46094 403.055 1.85156C403.32 1.24219 403.586 0.625 403.852 0H404.695C404.57 0.578125 404.438 1.14844 404.297 1.71094C404.172 2.27344 404.039 2.82812 403.898 3.375C405.273 3.14062 406.609 2.96094 407.906 2.83594C409.219 2.71094 410.508 2.64844 411.773 2.64844C413.523 2.64844 415.219 2.77344 416.859 3.02344C418.516 3.27344 420.062 3.65625 421.5 4.17188C422.938 4.67188 424.25 5.3125 425.438 6.09375C426.625 6.85938 427.641 7.76562 428.484 8.8125C429.344 9.84375 430.008 11.0156 430.477 12.3281C430.945 13.6406 431.18 15.0938 431.18 16.6875C431.18 17.6719 431.086 18.7031 430.898 19.7812C430.648 21.1875 430.109 22.5469 429.281 23.8594C428.453 25.1719 427.312 26.375 425.859 27.4688C424.406 28.5625 422.625 29.5078 420.516 30.3047C418.406 31.1016 415.938 31.6875 413.109 32.0625C413 32.3906 412.797 32.9609 412.5 33.7734C412.219 34.5859 411.891 35.5234 411.516 36.5859C411.141 37.6484 410.734 38.7734 410.297 39.9609C409.875 41.1328 409.477 42.2578 409.102 43.3359C408.727 44.3984 408.391 45.3516 408.094 46.1953C407.812 47.0391 407.617 47.6484 407.508 48.0234C407.414 48.3359 407.367 48.625 407.367 48.8906C407.367 49.4375 407.539 49.8672 407.883 50.1797C408.227 50.4766 408.711 50.625 409.336 50.625C409.82 50.625 410.367 50.5312 410.977 50.3438C411.602 50.1406 412.289 49.8203 413.039 49.3828C413.82 48.9297 414.641 48.4609 415.5 47.9766C416.359 47.4766 417.32 46.9219 418.383 46.3125C419.461 45.6875 420.68 44.9766 422.039 44.1797C423.398 43.3828 424.969 42.4531 426.75 41.3906ZM385.898 38.3438C386.055 38.1094 386.383 37.5 386.883 36.5156C387.398 35.5312 388.047 34.2578 388.828 32.6953C389.609 31.1328 390.492 29.3281 391.477 27.2812C392.461 25.2188 393.516 22.9922 394.641 20.6016C395.766 18.2109 396.922 15.7031 398.109 13.0781C399.312 10.4375 400.508 7.75781 401.695 5.03906C399.805 5.55469 397.938 6.19531 396.094 6.96094C394.266 7.71094 392.531 8.57812 390.891 9.5625C389.25 10.5312 387.734 11.6016 386.344 12.7734C384.953 13.9453 383.75 15.2031 382.734 16.5469C381.734 17.875 380.945 19.2891 380.367 20.7891C379.805 22.2734 379.523 23.8203 379.523 25.4297C379.523 27.4453 380.023 29.5391 381.023 31.7109C382.023 33.8672 383.648 36.0781 385.898 38.3438ZM406.57 30.4219C406.805 29.6719 407.07 28.875 407.367 28.0312C407.68 27.1875 407.969 26.3438 408.234 25.5C408.516 24.6406 408.75 23.8047 408.938 22.9922C409.125 22.1797 409.219 21.4297 409.219 20.7422C409.219 19.8047 408.992 19.0547 408.539 18.4922C408.086 17.9141 407.273 17.625 406.102 17.625C405.102 17.625 404.227 17.8281 403.477 18.2344C402.742 18.6406 402.125 19.1719 401.625 19.8281C401.141 20.4844 400.773 21.2266 400.523 22.0547C400.273 22.8828 400.148 23.7266 400.148 24.5859C400.148 25.3672 400.25 26.125 400.453 26.8594C400.656 27.5781 400.961 28.2188 401.367 28.7812C401.773 29.3438 402.281 29.7969 402.891 30.1406C403.5 30.4688 404.211 30.6328 405.023 30.6328C405.508 30.6328 406.023 30.5625 406.57 30.4219Z" fill="#EE2828"/>
<path d="M361.148 41.3906C361.242 41.3438 361.336 41.3203 361.43 41.3203C361.617 41.3203 361.789 41.4141 361.945 41.6016C362.102 41.7891 362.18 41.9922 362.18 42.2109C362.18 42.4453 362.102 42.6641 361.945 42.8672C361.789 43.0703 361.547 43.2891 361.219 43.5234C360.891 43.7422 360.469 44 359.953 44.2969C359.438 44.5938 358.82 44.9531 358.102 45.375C357.664 45.6406 357.07 46.0234 356.32 46.5234C355.586 47.0078 354.758 47.5469 353.836 48.1406C352.93 48.7188 351.961 49.3203 350.93 49.9453C349.898 50.5547 348.867 51.1094 347.836 51.6094C346.805 52.125 345.805 52.5391 344.836 52.8516C343.867 53.1797 342.992 53.3438 342.211 53.3438C341.727 53.3438 341.281 53.2734 340.875 53.1328C340.484 52.9922 340.148 52.7578 339.867 52.4297C339.586 52.1172 339.367 51.7031 339.211 51.1875C339.055 50.6875 338.977 50.0703 338.977 49.3359C338.977 48.3516 339.141 47.2422 339.469 46.0078C339.797 44.7578 340.211 43.4766 340.711 42.1641C341.227 40.8359 341.797 39.5078 342.422 38.1797C343.047 36.8359 343.664 35.5781 344.273 34.4062C344.883 33.2344 345.445 32.1797 345.961 31.2422C346.477 30.3047 346.875 29.5703 347.156 29.0391C346.156 29.0234 345.109 28.9844 344.016 28.9219C342.922 28.8438 341.883 28.7344 340.898 28.5938C339.93 28.4531 339.062 28.2812 338.297 28.0781C337.547 27.875 337 27.6328 336.656 27.3516C335.188 29.1328 333.539 30.9688 331.711 32.8594C329.898 34.7344 327.953 36.5625 325.875 38.3438C323.812 40.1094 321.641 41.7891 319.359 43.3828C317.078 44.9609 314.742 46.3438 312.352 47.5312C309.977 48.7031 307.562 49.6406 305.109 50.3438C302.672 51.0312 300.258 51.375 297.867 51.375C296.945 51.375 296.062 51.3438 295.219 51.2812C294.375 51.2188 293.562 51.1094 292.781 50.9531C292 50.7969 291.25 50.5781 290.531 50.2969C289.812 50.0156 289.117 49.6562 288.445 49.2188C288.18 49.0469 287.906 48.8672 287.625 48.6797C287.344 48.4922 287.094 48.3047 286.875 48.1172C286.641 47.9297 286.453 47.75 286.312 47.5781C286.156 47.3906 286.07 47.2188 286.055 47.0625H286.547C286.562 47.0625 286.75 47.125 287.109 47.25C287.453 47.375 287.914 47.5312 288.492 47.7188C289.07 47.9062 289.734 48.1172 290.484 48.3516C291.234 48.5703 292.023 48.7734 292.852 48.9609C293.695 49.1484 294.547 49.3047 295.406 49.4297C296.281 49.5547 297.117 49.6172 297.914 49.6172C299.914 49.6172 301.859 49.2656 303.75 48.5625C305.656 47.8594 307.516 46.9062 309.328 45.7031C311.156 44.4844 312.945 43.0703 314.695 41.4609C316.461 39.8359 318.203 38.1172 319.922 36.3047C321.641 34.4922 323.336 32.6328 325.008 30.7266C326.695 28.8047 328.375 26.9375 330.047 25.125C331.719 23.3125 333.391 21.6016 335.062 19.9922C336.734 18.3672 338.414 16.9531 340.102 15.75C341.805 14.5312 343.523 13.5703 345.258 12.8672C346.992 12.1641 348.75 11.8125 350.531 11.8125C351.797 11.8125 352.844 11.9844 353.672 12.3281C354.5 12.6562 355.148 13.1016 355.617 13.6641C356.102 14.2266 356.438 14.8828 356.625 15.6328C356.828 16.3672 356.93 17.1406 356.93 17.9531C356.93 18.8438 356.844 19.7578 356.672 20.6953C356.5 21.6328 356.305 22.5234 356.086 23.3672C355.867 24.2109 355.656 24.9766 355.453 25.6641C355.25 26.3359 355.117 26.8594 355.055 27.2344L355.031 27.4219C357.719 26.9531 360.07 26.3281 362.086 25.5469C364.117 24.75 365.812 23.8594 367.172 22.875C368.531 21.8906 369.547 20.8438 370.219 19.7344C370.906 18.6094 371.25 17.4844 371.25 16.3594C371.25 15.0625 370.789 13.8047 369.867 12.5859C368.945 11.3516 367.547 10.2656 365.672 9.32812C363.812 8.375 361.469 7.61719 358.641 7.05469C355.828 6.47656 352.523 6.1875 348.727 6.1875C347.086 6.1875 345.234 6.28125 343.172 6.46875C341.125 6.64062 338.93 6.875 336.586 7.17188C334.258 7.46875 331.812 7.80469 329.25 8.17969C326.703 8.55469 324.102 8.94531 321.445 9.35156C318.789 9.74219 316.117 10.125 313.43 10.5C310.742 10.875 308.094 11.2109 305.484 11.5078C302.891 11.8047 300.367 12.0469 297.914 12.2344C295.461 12.4062 293.141 12.4922 290.953 12.4922C289.203 12.4922 287.594 12.4141 286.125 12.2578C284.641 12.0859 283.336 11.8125 282.211 11.4375C282.039 11.3906 281.719 11.2266 281.25 10.9453C280.781 10.6484 280.242 10.2891 279.633 9.86719C279.023 9.44531 278.391 8.99219 277.734 8.50781C277.078 8.02344 276.477 7.5625 275.93 7.125C275.383 6.6875 274.93 6.30469 274.57 5.97656C274.211 5.63281 274.031 5.40625 274.031 5.29688C274.031 5.25 274.07 5.22656 274.148 5.22656C274.258 5.22656 274.445 5.28125 274.711 5.39062C274.961 5.48438 275.32 5.64844 275.789 5.88281C278.148 7.08594 280.906 7.9375 284.062 8.4375C287.203 8.92188 290.805 9.16406 294.867 9.16406C297.023 9.16406 299.461 9.05469 302.18 8.83594C304.898 8.61719 307.812 8.35156 310.922 8.03906C314.031 7.71094 317.305 7.35938 320.742 6.98438C324.18 6.60938 327.695 6.26562 331.289 5.95312C334.898 5.625 338.547 5.35156 342.234 5.13281C345.938 4.91406 349.609 4.80469 353.25 4.80469C356.938 4.80469 360.109 5.10938 362.766 5.71875C365.422 6.32812 367.609 7.14844 369.328 8.17969C371.047 9.19531 372.312 10.3672 373.125 11.6953C373.938 13.0078 374.344 14.375 374.344 15.7969C374.344 16.8438 374.133 17.8906 373.711 18.9375C373.305 19.9844 372.695 20.9922 371.883 21.9609C371.086 22.9141 370.102 23.8203 368.93 24.6797C367.758 25.5391 366.414 26.2969 364.898 26.9531C363.398 27.5938 361.734 28.125 359.906 28.5469C358.094 28.9688 356.133 29.2344 354.023 29.3438C353.883 29.6406 353.602 30.125 353.18 30.7969C352.773 31.4688 352.281 32.2656 351.703 33.1875C351.125 34.0938 350.484 35.0859 349.781 36.1641C349.094 37.2266 348.398 38.3125 347.695 39.4219C346.992 40.5312 346.312 41.625 345.656 42.7031C345 43.7812 344.414 44.7734 343.898 45.6797C343.398 46.5859 342.992 47.375 342.68 48.0469C342.383 48.7031 342.234 49.1797 342.234 49.4766C342.234 49.9922 342.344 50.3672 342.562 50.6016C342.781 50.8203 343.094 50.9297 343.5 50.9297C344 50.9297 344.633 50.7734 345.398 50.4609C346.164 50.1484 347.016 49.7344 347.953 49.2188C348.891 48.6875 349.898 48.0938 350.977 47.4375C352.055 46.7656 353.164 46.0781 354.305 45.375C355.445 44.6562 356.594 43.9531 357.75 43.2656C358.906 42.5781 360.039 41.9531 361.148 41.3906ZM348.117 27.3516C348.57 26.3984 349.07 25.3906 349.617 24.3281C350.18 23.25 350.703 22.1875 351.188 21.1406C351.672 20.0781 352.078 19.0625 352.406 18.0938C352.734 17.1094 352.898 16.2422 352.898 15.4922C352.898 14.7891 352.766 14.2891 352.5 13.9922C352.234 13.6953 351.875 13.5469 351.422 13.5469C350.859 13.5469 350.18 13.7422 349.383 14.1328C348.602 14.5234 347.766 15.0469 346.875 15.7031C346 16.3594 345.109 17.1094 344.203 17.9531C343.297 18.7969 342.438 19.6719 341.625 20.5781C340.828 21.4844 340.109 22.3906 339.469 23.2969C338.828 24.1875 338.344 25.0156 338.016 25.7812C338.203 26.0312 338.633 26.2578 339.305 26.4609C339.977 26.6484 340.789 26.8125 341.742 26.9531C342.695 27.0781 343.727 27.1797 344.836 27.2578C345.961 27.3203 347.055 27.3516 348.117 27.3516Z" fill="#EE2828"/>
<path d="M281.531 23.625C281.906 23.7656 282.305 23.8906 282.727 24C283.164 24.1094 283.594 24.2031 284.016 24.2812C284.453 24.3438 284.875 24.4062 285.281 24.4688C285.703 24.5156 286.078 24.5469 286.406 24.5625C287 22.75 287.742 21.0625 288.633 19.5C289.523 17.9375 290.492 16.5156 291.539 15.2344C292.602 13.9531 293.711 12.8203 294.867 11.8359C296.039 10.8516 297.195 10.0234 298.336 9.35156C299.492 8.66406 300.602 8.14844 301.664 7.80469C302.742 7.46094 303.727 7.28906 304.617 7.28906C305.758 7.28906 306.672 7.58594 307.359 8.17969C308.062 8.77344 308.414 9.69531 308.414 10.9453C308.414 11.6797 308.203 12.5 307.781 13.4062C307.375 14.3125 306.789 15.25 306.023 16.2188C305.258 17.1719 304.328 18.1328 303.234 19.1016C302.141 20.0703 300.906 20.9922 299.531 21.8672C298.172 22.7266 296.68 23.5156 295.055 24.2344C293.445 24.9375 291.742 25.5078 289.945 25.9453C289.242 27.8516 288.516 29.7969 287.766 31.7812C287.016 33.75 286.219 35.7188 285.375 37.6875C284.531 39.6406 283.617 41.5547 282.633 43.4297C281.664 45.3047 280.586 47.0938 279.398 48.7969C280.789 50.0312 282.164 51.2422 283.523 52.4297C284.898 53.6328 286.297 54.7031 287.719 55.6406C289.141 56.5781 290.609 57.3281 292.125 57.8906C293.641 58.4688 295.242 58.7578 296.93 58.7578C298.773 58.7578 300.742 58.3516 302.836 57.5391C304.93 56.7266 307.203 55.3672 309.656 53.4609C311.312 52.3672 312.688 51.5625 313.781 51.0469C314.875 50.5312 315.672 50.2734 316.172 50.2734C316.562 50.2734 316.758 50.4219 316.758 50.7188C316.758 51.1406 316.305 51.8438 315.398 52.8281C314.508 53.8281 313.094 55.0859 311.156 56.6016C309.844 57.6641 308.586 58.5703 307.383 59.3203C306.195 60.0703 305.039 60.6797 303.914 61.1484C302.805 61.6172 301.734 61.9609 300.703 62.1797C299.672 62.3984 298.68 62.5078 297.727 62.5078C295.836 62.5078 294.047 62.1406 292.359 61.4062C290.672 60.6875 289.039 59.75 287.461 58.5938C285.883 57.4375 284.32 56.1406 282.773 54.7031C281.242 53.2656 279.68 51.8281 278.086 50.3906C277.055 51.6094 275.953 52.7188 274.781 53.7188C273.609 54.7344 272.352 55.6016 271.008 56.3203C269.68 57.0547 268.258 57.6172 266.742 58.0078C265.242 58.4141 263.641 58.6172 261.938 58.6172C259.969 58.6172 258.258 58.3359 256.805 57.7734C255.352 57.2109 254.148 56.4688 253.195 55.5469C252.258 54.625 251.555 53.5703 251.086 52.3828C250.633 51.2109 250.406 50.0156 250.406 48.7969C250.406 47.5938 250.625 46.4141 251.062 45.2578C251.5 44.1016 252.141 43.0781 252.984 42.1875C253.828 41.2812 254.875 40.5547 256.125 40.0078C257.375 39.4609 258.812 39.1875 260.438 39.1875C262.031 39.1875 263.539 39.375 264.961 39.75C266.383 40.125 267.75 40.6328 269.062 41.2734C270.375 41.8984 271.633 42.6328 272.836 43.4766C274.039 44.3203 275.211 45.2109 276.352 46.1484C277.258 44.6016 278.125 42.9922 278.953 41.3203C279.797 39.6328 280.609 37.9219 281.391 36.1875C282.188 34.4531 282.961 32.7109 283.711 30.9609C284.477 29.2109 285.234 27.4922 285.984 25.8047C285.656 25.8047 285.289 25.7969 284.883 25.7812C284.477 25.75 284.055 25.7188 283.617 25.6875C283.18 25.6562 282.742 25.6172 282.305 25.5703C281.883 25.5078 281.484 25.4375 281.109 25.3594C280.406 25.2344 279.68 25.1484 278.93 25.1016C278.195 25.0391 277.5 24.9297 276.844 24.7734C276.188 24.6016 275.594 24.3438 275.062 24C274.547 23.6406 274.148 23.1094 273.867 22.4062C273.742 22.1094 273.68 21.8203 273.68 21.5391C273.68 21.3203 273.727 21.1016 273.82 20.8828C273.914 20.6641 274.047 20.4688 274.219 20.2969C274.406 20.1094 274.617 19.9609 274.852 19.8516C275.102 19.7422 275.375 19.6875 275.672 19.6875C276.156 19.6875 276.672 19.8359 277.219 20.1328C277.766 20.4297 278.305 20.7891 278.836 21.2109C279.367 21.6328 279.867 22.0703 280.336 22.5234C280.805 22.9609 281.203 23.3281 281.531 23.625ZM261.68 56.8359C263.18 56.8359 264.57 56.6172 265.852 56.1797C267.133 55.7422 268.328 55.1328 269.438 54.3516C270.547 53.5703 271.578 52.6328 272.531 51.5391C273.484 50.4609 274.383 49.2734 275.227 47.9766C274.133 47.1172 273 46.3125 271.828 45.5625C270.672 44.8125 269.461 44.1562 268.195 43.5938C266.93 43.0312 265.602 42.5938 264.211 42.2812C262.836 41.9531 261.375 41.7891 259.828 41.7891C258.906 41.7891 258.094 41.9844 257.391 42.375C256.703 42.7656 256.125 43.2812 255.656 43.9219C255.188 44.5625 254.828 45.2969 254.578 46.125C254.344 46.9531 254.227 47.8125 254.227 48.7031C254.227 49.6875 254.375 50.6641 254.672 51.6328C254.984 52.6172 255.445 53.4922 256.055 54.2578C256.664 55.0234 257.438 55.6406 258.375 56.1094C259.312 56.5938 260.414 56.8359 261.68 56.8359ZM290.438 24.1641C291.953 23.6484 293.391 23.0078 294.75 22.2422C296.125 21.4609 297.391 20.625 298.547 19.7344C299.719 18.8438 300.773 17.9219 301.711 16.9688C302.648 16.0156 303.445 15.0938 304.102 14.2031C304.773 13.3125 305.281 12.4922 305.625 11.7422C305.984 10.9766 306.164 10.3438 306.164 9.84375C306.164 9.14062 305.805 8.78906 305.086 8.78906C304.57 8.78906 303.906 8.97656 303.094 9.35156C302.281 9.72656 301.398 10.2578 300.445 10.9453C299.508 11.6328 298.531 12.4531 297.516 13.4062C296.516 14.3438 295.562 15.3828 294.656 16.5234C293.75 17.6641 292.922 18.8828 292.172 20.1797C291.438 21.4609 290.859 22.7891 290.438 24.1641Z" fill="#EE2828"/>
<path d="M253.969 13.6641C253.953 13.6641 253.945 13.6562 253.945 13.6406L253.969 13.6172C253.969 13.6328 253.969 13.6484 253.969 13.6641ZM247.5 68.0391C248.688 68.0391 249.797 67.8359 250.828 67.4297C251.859 67.0391 252.758 66.5234 253.523 65.8828C254.289 65.2422 254.883 64.5156 255.305 63.7031C255.742 62.8906 255.961 62.0703 255.961 61.2422C255.961 60.4766 255.758 59.7344 255.352 59.0156C254.945 58.2969 254.289 57.6562 253.383 57.0938C252.477 56.5312 251.305 56.0781 249.867 55.7344C248.445 55.4062 246.711 55.2422 244.664 55.2422C243.07 55.2422 241.484 55.2578 239.906 55.2891C238.344 55.3359 236.875 55.3906 235.5 55.4531C235.641 57.4688 236.086 59.2578 236.836 60.8203C237.602 62.3984 238.547 63.7188 239.672 64.7812C240.797 65.8438 242.039 66.6484 243.398 67.1953C244.773 67.7578 246.141 68.0391 247.5 68.0391ZM236.484 49.3594L239.484 47.6484L241.992 46.2422L244.125 45.0703L246.07 43.9453L250.383 41.3906C250.57 41.2969 250.742 41.25 250.898 41.25C251.07 41.25 251.203 41.3125 251.297 41.4375C251.391 41.5469 251.438 41.6875 251.438 41.8594C251.438 42.0781 251.352 42.3281 251.18 42.6094C251.008 42.875 250.742 43.1172 250.383 43.3359L247.57 45.0469L244.312 46.9453L240.445 49.1484L235.828 51.6797L235.617 51.75C235.555 52.2031 235.508 52.6328 235.477 53.0391C235.461 53.4609 235.453 53.8516 235.453 54.2109C237.156 53.9297 239.156 53.6719 241.453 53.4375C243.766 53.2188 246.195 53.1094 248.742 53.1094C250.602 53.1094 252.18 53.2891 253.477 53.6484C254.773 54.0078 255.828 54.4844 256.641 55.0781C257.469 55.6719 258.062 56.3594 258.422 57.1406C258.797 57.9219 258.984 58.7422 258.984 59.6016C258.984 60.6797 258.719 61.7656 258.188 62.8594C257.672 63.9531 256.969 64.9375 256.078 65.8125C255.188 66.6875 254.148 67.3984 252.961 67.9453C251.789 68.5078 250.539 68.7891 249.211 68.7891C248.102 68.7891 246.93 68.6641 245.695 68.4141C244.461 68.1641 243.227 67.7891 241.992 67.2891C240.773 66.8047 239.594 66.1953 238.453 65.4609C237.328 64.7266 236.305 63.875 235.383 62.9062C234.461 61.9375 233.68 60.8438 233.039 59.625C232.414 58.4219 232 57.1016 231.797 55.6641L229.617 55.8047C229.461 55.8203 229.312 55.8281 229.172 55.8281C229.047 55.8438 228.922 55.8516 228.797 55.8516C228.391 55.8516 228.07 55.8125 227.836 55.7344C227.617 55.6719 227.508 55.5391 227.508 55.3359C227.508 55.1016 227.812 54.7188 228.422 54.1875C229.047 53.6719 230.133 52.9531 231.68 52.0312C231.695 51.5 231.719 50.9609 231.75 50.4141L231.797 48.8203C231.828 48.3047 231.859 47.8438 231.891 47.4375C231.938 47.0156 231.984 46.6797 232.031 46.4297C230.766 47.3672 229.484 48.2422 228.188 49.0547C226.906 49.8672 225.633 50.5703 224.367 51.1641C223.117 51.7578 221.883 52.2266 220.664 52.5703C219.445 52.9141 218.273 53.0859 217.148 53.0859C216.336 53.0859 215.594 52.8984 214.922 52.5234C214.25 52.1484 213.641 51.6484 213.094 51.0234C212.547 50.3828 212.062 49.6406 211.641 48.7969C211.234 47.9531 210.891 47.0547 210.609 46.1016C210.344 45.1484 210.141 44.1719 210 43.1719C209.859 42.1719 209.789 41.2031 209.789 40.2656C209.789 38.5312 209.984 36.6797 210.375 34.7109C210.781 32.7422 211.297 30.7734 211.922 28.8047C212.547 26.8203 213.242 24.8906 214.008 23.0156C214.789 21.125 215.547 19.3906 216.281 17.8125C217.016 16.2188 217.688 14.8359 218.297 13.6641C218.922 12.4766 219.398 11.6016 219.727 11.0391C218.148 10.8047 216.461 10.5703 214.664 10.3359C212.883 10.1016 211.023 9.89062 209.086 9.70312C207.164 9.51562 205.172 9.36719 203.109 9.25781C201.062 9.13281 198.984 9.07031 196.875 9.07031C194.125 9.07031 191.727 9.17969 189.68 9.39844C187.633 9.60156 185.883 9.89844 184.43 10.2891C182.961 10.6641 181.758 11.1172 180.82 11.6484C179.883 12.1797 179.148 12.7734 178.617 13.4297C178.07 14.0703 177.695 14.7656 177.492 15.5156C177.273 16.25 177.164 17.0078 177.164 17.7891C177.164 18.5234 177.227 19.2734 177.352 20.0391C177.477 20.7891 177.617 21.5391 177.773 22.2891C177.914 23.0391 178.047 23.7812 178.172 24.5156C178.297 25.25 178.359 25.9531 178.359 26.625C178.359 27.5781 178.18 28.4688 177.82 29.2969C177.445 30.1094 176.758 30.8047 175.758 31.3828C175.742 31.3984 175.711 31.4062 175.664 31.4062C175.586 31.4062 175.523 31.3828 175.477 31.3359C175.43 31.2891 175.398 31.2422 175.383 31.1953C175.352 31.1328 175.336 31.0781 175.336 31.0312V30.9375C175.336 30.9062 175.359 30.8828 175.406 30.8672C175.438 30.8359 175.469 30.8047 175.5 30.7734L175.664 30.7031C175.664 30.6719 175.586 30.5234 175.43 30.2578C175.273 29.9766 175.086 29.6016 174.867 29.1328C174.633 28.6641 174.383 28.1172 174.117 27.4922C173.836 26.8672 173.586 26.1875 173.367 25.4531C173.133 24.7188 172.938 23.9375 172.781 23.1094C172.625 22.2812 172.547 21.4375 172.547 20.5781C172.547 19.5469 172.688 18.5156 172.969 17.4844C173.25 16.4375 173.75 15.4375 174.469 14.4844C175.172 13.5156 176.117 12.6172 177.305 11.7891C178.492 10.9609 180 10.2422 181.828 9.63281C183.641 9.00781 185.797 8.52344 188.297 8.17969C190.797 7.82031 193.711 7.64062 197.039 7.64062C197.93 7.64062 199 7.67969 200.25 7.75781C201.5 7.82031 202.883 7.91406 204.398 8.03906L209.273 8.50781C211.008 8.66406 212.797 8.83594 214.641 9.02344L220.266 9.63281L225.984 10.2656L224.672 13.0078L222.984 16.5469L221.109 20.6953L219.211 25.2422C218.586 26.7891 217.992 28.3594 217.43 29.9531C216.883 31.5312 216.398 33.0781 215.977 34.5938C215.555 36.1094 215.219 37.5703 214.969 38.9766C214.719 40.3828 214.594 41.6875 214.594 42.8906C214.594 43.8438 214.656 44.8125 214.781 45.7969C214.906 46.7812 215.109 47.6797 215.391 48.4922C215.688 49.2891 216.078 49.9453 216.562 50.4609C217.062 50.9609 217.68 51.2109 218.414 51.2109C219.258 51.2109 220.227 50.9766 221.32 50.5078C222.43 50.0234 223.609 49.375 224.859 48.5625C226.125 47.7344 227.445 46.7734 228.82 45.6797C230.211 44.5859 231.609 43.4141 233.016 42.1641C233.781 39.4453 234.797 36.6953 236.062 33.9141C237.328 31.1172 238.773 28.375 240.398 25.6875C242.023 23 243.781 20.4219 245.672 17.9531C247.578 15.4844 249.547 13.2109 251.578 11.1328C251.594 11.0859 251.664 11.0625 251.789 11.0625C252.086 11.0625 252.352 11.1406 252.586 11.2969C252.82 11.4375 253.016 11.625 253.172 11.8594C253.344 12.0781 253.484 12.3203 253.594 12.5859C253.719 12.8359 253.812 13.0703 253.875 13.2891C253.859 13.2734 253.836 13.2656 253.805 13.2656C253.664 13.2656 253.391 13.5 252.984 13.9688C252.578 14.4219 252.07 15.0703 251.461 15.9141C250.867 16.7422 250.195 17.7422 249.445 18.9141L247.055 22.7812L244.453 27.3516C243.625 28.8984 242.758 30.6016 241.852 32.4609C241.32 33.5547 240.781 34.7656 240.234 36.0938C239.656 37.4688 239.094 38.9219 238.547 40.4531C238.016 41.9688 237.523 43.5156 237.07 45.0938C236.617 46.6719 236.25 48.1875 235.969 49.6406L236.484 49.3594ZM253.875 13.2891C253.922 13.3359 253.945 13.4375 253.945 13.5938C253.945 13.5312 253.922 13.4297 253.875 13.2891Z" fill="#EE2828"/>
<path d="M200.648 41.3906C200.836 41.2969 201.008 41.25 201.164 41.25C201.336 41.25 201.469 41.3125 201.562 41.4375C201.656 41.5469 201.703 41.6875 201.703 41.8594C201.703 42.0781 201.617 42.3281 201.445 42.6094C201.273 42.875 201.008 43.1172 200.648 43.3359C199.742 43.9609 198.828 44.5469 197.906 45.0938C197 45.6406 196.07 46.1562 195.117 46.6406C194.305 47.0625 193.445 47.4688 192.539 47.8594C191.633 48.25 190.703 48.6016 189.75 48.9141C188.812 49.2266 187.859 49.4766 186.891 49.6641C185.938 49.8516 185.008 49.9453 184.102 49.9453C183.977 49.9453 183.844 49.9453 183.703 49.9453C183.578 49.9453 183.453 49.9375 183.328 49.9219C182.406 51.125 181.625 52.1406 180.984 52.9688C180.344 53.7969 179.781 54.5234 179.297 55.1484C178.828 55.7891 178.406 56.3594 178.031 56.8594C177.656 57.3594 177.266 57.875 176.859 58.4062C176.453 58.9531 176 59.5547 175.5 60.2109C175.016 60.8672 174.422 61.6562 173.719 62.5781C176.797 63.0938 179.867 63.6641 182.93 64.2891C185.992 64.9297 188.953 65.5312 191.812 66.0938C194.672 66.6562 197.383 67.125 199.945 67.5C202.523 67.8906 204.867 68.0938 206.977 68.1094C207.367 68.1094 207.656 68.1797 207.844 68.3203C208.047 68.4609 208.148 68.625 208.148 68.8125C208.148 69.125 207.906 69.4219 207.422 69.7031C206.953 70 206.219 70.1484 205.219 70.1484C203.031 70.1016 200.641 69.875 198.047 69.4688C195.453 69.0625 192.734 68.5781 189.891 68.0156C187.047 67.4688 184.125 66.8828 181.125 66.2578C178.125 65.6484 175.133 65.1094 172.148 64.6406L171.633 65.3203C169.242 68.4297 167 71.2109 164.906 73.6641C162.828 76.1172 160.836 78.1953 158.93 79.8984C157.039 81.6016 155.219 82.9062 153.469 83.8125C151.734 84.7188 150.023 85.1719 148.336 85.1719C146.258 85.1719 144.484 84.9844 143.016 84.6094C141.547 84.25 140.352 83.75 139.43 83.1094C138.492 82.4688 137.812 81.7109 137.391 80.8359C136.953 79.9766 136.734 79.0469 136.734 78.0469C136.734 76.8594 137.008 75.6094 137.555 74.2969C138.102 73 138.859 71.7188 139.828 70.4531C140.797 69.1875 141.945 67.9844 143.273 66.8438C144.602 65.7031 146.047 64.6953 147.609 63.8203C149.172 62.9609 150.812 62.2734 152.531 61.7578C154.266 61.2422 156.023 60.9844 157.805 60.9844C159.852 60.9844 161.922 61.0781 164.016 61.2656C166.109 61.4688 168.273 61.7344 170.508 62.0625C171.008 61.4062 171.438 60.8438 171.797 60.375C172.156 59.9062 172.508 59.4453 172.852 58.9922C173.211 58.5547 173.594 58.0859 174 57.5859C174.406 57.0859 174.906 56.4688 175.5 55.7344C176.094 55.0156 176.805 54.1406 177.633 53.1094C178.477 52.0938 179.508 50.8438 180.727 49.3594C180.43 49.2344 180.141 49.1094 179.859 48.9844C179.594 48.8438 179.336 48.6953 179.086 48.5391C177.367 49.8359 175.719 50.9453 174.141 51.8672C172.562 52.8047 171.062 53.5703 169.641 54.1641C168.219 54.7578 166.867 55.1875 165.586 55.4531C164.32 55.7344 163.133 55.875 162.023 55.875C160.195 55.875 158.57 55.5391 157.148 54.8672C155.742 54.1953 154.555 53.2656 153.586 52.0781C152.633 50.8906 151.906 49.5 151.406 47.9062C150.906 46.2969 150.656 44.5547 150.656 42.6797C150.656 40.9609 150.859 39.1797 151.266 37.3359C151.688 35.4922 152.367 33.6406 153.305 31.7812C154.242 29.9062 155.477 28.0469 157.008 26.2031C158.555 24.3594 160.445 22.5781 162.68 20.8594C164.93 19.125 167.562 17.4766 170.578 15.9141C173.594 14.3516 177.055 12.9141 180.961 11.6016C179.742 11.0391 178.32 10.5625 176.695 10.1719C175.07 9.78125 173.266 9.46875 171.281 9.23438C169.297 8.98438 167.141 8.80469 164.812 8.69531C162.5 8.58594 160.039 8.53125 157.43 8.53125C152.211 8.53125 146.523 8.69531 140.367 9.02344C134.195 9.35156 127.641 9.75781 120.703 10.2422C120.781 10.1797 120.836 10.125 120.867 10.0781C120.883 10.0156 120.891 9.96875 120.891 9.9375C120.891 9.85938 120.875 9.78906 120.844 9.72656C120.797 9.64844 120.773 9.58594 120.773 9.53906C120.773 9.46094 120.836 9.35938 120.961 9.23438C121.18 9.23438 121.391 9.24219 121.594 9.25781C121.781 9.25781 121.984 9.25781 122.203 9.25781C123.594 9.25781 125.117 9.21094 126.773 9.11719C128.414 9.00781 130.164 8.875 132.023 8.71875C133.867 8.54688 135.812 8.375 137.859 8.20312C139.891 8.01562 141.992 7.84375 144.164 7.6875C146.336 7.51562 148.562 7.38281 150.844 7.28906C153.125 7.17969 155.438 7.125 157.781 7.125C162.031 7.125 166.273 7.35156 170.508 7.80469C174.758 8.24219 178.961 9.07031 183.117 10.2891C185.273 9.49219 187.281 8.88281 189.141 8.46094C191.016 8.03906 192.828 7.82812 194.578 7.82812C197.406 7.82812 199.852 8.0625 201.914 8.53125C203.977 8.98438 205.68 9.57812 207.023 10.3125C208.383 11.0312 209.391 11.8281 210.047 12.7031C210.703 13.5781 211.031 14.4219 211.031 15.2344C211.031 15.7656 210.891 16.2656 210.609 16.7344C210.344 17.2031 209.945 17.6172 209.414 17.9766C208.898 18.3203 208.242 18.5938 207.445 18.7969C206.664 19 205.758 19.1016 204.727 19.1016C203.93 19.1016 203.055 19.0234 202.102 18.8672C201.148 18.6953 200.164 18.4766 199.148 18.2109C198.133 17.9453 197.109 17.6406 196.078 17.2969C195.062 16.9531 194.086 16.6016 193.148 16.2422C192.023 15.8203 190.898 15.375 189.773 14.9062C188.664 14.4219 187.539 13.9141 186.398 13.3828C182.773 14.7578 179.477 16.2656 176.508 17.9062C173.555 19.5312 170.906 21.2344 168.562 23.0156C166.234 24.7812 164.211 26.5938 162.492 28.4531C160.773 30.2969 159.352 32.125 158.227 33.9375C157.102 35.75 156.258 37.5156 155.695 39.2344C155.148 40.9375 154.875 42.5312 154.875 44.0156C154.875 45.1875 155.023 46.2578 155.32 47.2266C155.633 48.1797 156.102 49.0078 156.727 49.7109C157.367 50.3984 158.172 50.9297 159.141 51.3047C160.109 51.6953 161.25 51.8906 162.562 51.8906C164.328 51.8906 166.391 51.5156 168.75 50.7656C171.125 50 173.836 48.7578 176.883 47.0391C176.523 46.6797 176.344 46.3203 176.344 45.9609C176.344 45.7734 176.445 45.5469 176.648 45.2812C176.852 45.0156 177.117 44.7656 177.445 44.5312C177.789 44.2812 178.172 44.0703 178.594 43.8984C179.016 43.7109 179.445 43.6172 179.883 43.6172C180.414 43.6172 180.953 43.8203 181.5 44.2266C183.062 43.1953 184.688 42.0625 186.375 40.8281C188.062 39.5781 189.852 38.1953 191.742 36.6797L191.648 39.3516L185.297 47.3906C185.5 47.4375 185.703 47.4688 185.906 47.4844C186.109 47.5 186.32 47.5078 186.539 47.5078C187.242 47.5078 187.977 47.4219 188.742 47.25C189.523 47.0781 190.305 46.8516 191.086 46.5703C191.883 46.2734 192.672 45.9453 193.453 45.5859C194.234 45.2109 194.977 44.8359 195.68 44.4609C196.523 44.0078 197.352 43.5312 198.164 43.0312C198.977 42.5156 199.805 41.9688 200.648 41.3906ZM168.938 64.1719C167.188 63.9375 165.469 63.75 163.781 63.6094C162.109 63.4844 160.445 63.4219 158.789 63.4219C157.289 63.4219 155.75 63.6406 154.172 64.0781C152.609 64.5312 151.078 65.1328 149.578 65.8828C148.094 66.6484 146.688 67.5234 145.359 68.5078C144.047 69.4922 142.898 70.5156 141.914 71.5781C140.914 72.6562 140.125 73.7422 139.547 74.8359C138.969 75.9297 138.68 76.9531 138.68 77.9062C138.68 78.625 138.859 79.2812 139.219 79.875C139.578 80.4844 140.148 81.0078 140.93 81.4453C141.695 81.8984 142.695 82.25 143.93 82.5C145.164 82.75 146.664 82.875 148.43 82.875C149.852 82.875 151.242 82.5547 152.602 81.9141C153.977 81.2734 155.297 80.4297 156.562 79.3828C157.828 78.3516 159.039 77.1797 160.195 75.8672C161.352 74.5547 162.43 73.2344 163.43 71.9062C164.445 70.5781 165.375 69.2969 166.219 68.0625C167.062 66.8281 167.805 65.7656 168.445 64.875L168.938 64.1719ZM205.477 17.4844C206.461 17.4844 207.164 17.3672 207.586 17.1328C208.023 16.8828 208.242 16.5547 208.242 16.1484C208.242 15.8047 208.094 15.4219 207.797 15C207.516 14.5781 207.125 14.1562 206.625 13.7344C206.125 13.2969 205.539 12.875 204.867 12.4688C204.195 12.0625 203.469 11.7031 202.688 11.3906C201.922 11.0781 201.117 10.8281 200.273 10.6406C199.445 10.4375 198.625 10.3359 197.812 10.3359C196.984 10.3359 196.195 10.375 195.445 10.4531C194.695 10.5156 193.961 10.625 193.242 10.7812C192.523 10.9219 191.805 11.1094 191.086 11.3438C190.383 11.5625 189.656 11.8203 188.906 12.1172C189.25 12.2578 189.781 12.4922 190.5 12.8203C191.234 13.1328 192.078 13.4922 193.031 13.8984C194 14.2891 195.039 14.6953 196.148 15.1172C197.273 15.5391 198.391 15.9297 199.5 16.2891C200.609 16.6328 201.68 16.9219 202.711 17.1562C203.758 17.375 204.68 17.4844 205.477 17.4844ZM187.57 41.0391C186.727 41.8828 185.898 42.6797 185.086 43.4297C184.289 44.1641 183.492 44.8828 182.695 45.5859L182.836 45.7734C182.898 45.8516 182.961 45.9375 183.023 46.0312C183.086 46.1094 183.156 46.1875 183.234 46.2656L187.57 41.0391Z" fill="#EE2828"/>
<path d="M144.141 41.3906C144.328 41.2969 144.5 41.25 144.656 41.25C144.828 41.25 144.961 41.3125 145.055 41.4375C145.148 41.5469 145.195 41.6875 145.195 41.8594C145.195 42.0781 145.109 42.3281 144.938 42.6094C144.766 42.875 144.5 43.1172 144.141 43.3359C143.25 43.8672 142.305 44.4297 141.305 45.0234C140.32 45.6172 139.32 46.2188 138.305 46.8281C137.305 47.4219 136.305 48 135.305 48.5625C134.32 49.1094 133.383 49.6016 132.492 50.0391C131.617 50.4609 130.812 50.8125 130.078 51.0938C129.359 51.375 128.75 51.5391 128.25 51.5859C128.25 51.6484 128.055 51.7891 127.664 52.0078C127.273 52.2422 126.789 52.4844 126.211 52.7344C125.648 52.9844 125.047 53.2109 124.406 53.4141C123.766 53.6172 123.195 53.7188 122.695 53.7188C122.305 53.7188 121.977 53.6328 121.711 53.4609C121.461 53.3047 121.336 53.0234 121.336 52.6172C121.336 52.5859 121.344 52.5312 121.359 52.4531C121.375 52.375 121.383 52.3125 121.383 52.2656L115.594 18.2812C113.531 23.5469 111.672 28.3203 110.016 32.6016C108.375 36.8672 106.789 40.6094 105.258 43.8281C106.648 44.1562 107.844 44.5859 108.844 45.1172C109.859 45.6484 110.695 46.2578 111.352 46.9453C112.008 47.6172 112.492 48.3672 112.805 49.1953C113.117 50.0234 113.273 50.8906 113.273 51.7969C113.273 52.7812 113.078 53.8438 112.688 54.9844C112.312 56.1406 111.781 57.3047 111.094 58.4766C110.422 59.6641 109.617 60.8359 108.68 61.9922C107.742 63.1484 106.719 64.2266 105.609 65.2266C105.484 65.3359 105.297 65.4688 105.047 65.625C104.812 65.7969 104.555 65.9609 104.273 66.1172C104.008 66.2734 103.742 66.4062 103.477 66.5156C103.227 66.625 103.023 66.6797 102.867 66.6797C102.727 66.6797 102.656 66.6172 102.656 66.4922C102.656 66.3516 102.766 66.0859 102.984 65.6953C103.828 64.2578 104.727 62.9062 105.68 61.6406C106.648 60.375 107.531 59.1641 108.328 58.0078C109.141 56.8672 109.812 55.7734 110.344 54.7266C110.875 53.6797 111.141 52.6484 111.141 51.6328C111.141 50.8828 111.016 50.1797 110.766 49.5234C110.516 48.8516 110.117 48.25 109.57 47.7188C109.039 47.1719 108.352 46.7031 107.508 46.3125C106.68 45.9219 105.672 45.6172 104.484 45.3984C103.844 47.4453 102.922 49.2188 101.719 50.7188C100.531 52.2188 99.2109 53.4609 97.7578 54.4453C96.3047 55.4453 94.7891 56.1875 93.2109 56.6719C91.6484 57.1562 90.1719 57.3984 88.7812 57.3984C87.875 57.3984 87.0391 57.2969 86.2734 57.0938C85.4922 56.8906 84.8203 56.5859 84.2578 56.1797C83.6797 55.7891 83.2266 55.2969 82.8984 54.7031C82.5703 54.125 82.4062 53.4453 82.4062 52.6641C82.4062 51.9922 82.5938 51.2891 82.9688 50.5547C83.3438 49.8047 83.8672 49.0703 84.5391 48.3516C85.2109 47.6328 86.0156 46.9531 86.9531 46.3125C87.8906 45.6719 88.9219 45.1094 90.0469 44.625C91.1719 44.1406 92.375 43.7578 93.6562 43.4766C94.9375 43.1797 96.2578 43.0312 97.6172 43.0312C98.2734 43.0312 98.8984 43.0469 99.4922 43.0781C100.086 43.1094 100.656 43.1484 101.203 43.1953C102.094 41.4141 102.984 39.5391 103.875 37.5703C104.766 35.6016 105.648 33.6172 106.523 31.6172C107.398 29.6172 108.258 27.6328 109.102 25.6641C109.961 23.6953 110.797 21.8203 111.609 20.0391C112.438 18.2422 113.242 16.5859 114.023 15.0703C114.805 13.5391 115.555 12.2188 116.273 11.1094C116.992 10 117.68 9.13281 118.336 8.50781C119.008 7.86719 119.641 7.54688 120.234 7.54688C120.578 7.54688 120.867 7.61719 121.102 7.75781C121.336 7.88281 121.516 8.05469 121.641 8.27344C121.781 8.47656 121.875 8.71875 121.922 9C121.984 9.28125 122.016 9.5625 122.016 9.84375C122.016 10.0938 122 10.3438 121.969 10.5938C121.938 10.8281 121.906 11.0469 121.875 11.25C121.844 11.4375 121.812 11.6016 121.781 11.7422C121.75 11.8672 121.734 11.9375 121.734 11.9531L127.688 46.9453L140.391 14.8828C140.625 14.3203 140.906 13.7266 141.234 13.1016C141.578 12.4609 141.953 11.875 142.359 11.3438C142.766 10.7969 143.203 10.3438 143.672 9.98438C144.141 9.625 144.633 9.44531 145.148 9.44531C145.68 9.44531 146.102 9.49219 146.414 9.58594C146.742 9.66406 146.992 9.76562 147.164 9.89062C147.352 10.0156 147.477 10.1641 147.539 10.3359C147.617 10.4922 147.672 10.6484 147.703 10.8047L129.516 48.9141C130.719 48.5391 131.914 48.0781 133.102 47.5312C134.289 46.9688 135.484 46.3594 136.688 45.7031C137.891 45.0469 139.109 44.3516 140.344 43.6172C141.578 42.8828 142.844 42.1406 144.141 41.3906ZM100.289 45.0234C100.289 44.9609 100.258 44.9297 100.195 44.9297C99.0391 44.9297 97.8672 45.0547 96.6797 45.3047C95.4922 45.5547 94.3438 45.8906 93.2344 46.3125C92.125 46.7344 91.0781 47.2266 90.0938 47.7891C89.125 48.3359 88.2734 48.9141 87.5391 49.5234C86.8047 50.1328 86.2266 50.7422 85.8047 51.3516C85.3828 51.9766 85.1719 52.5625 85.1719 53.1094C85.1719 54 85.4531 54.6562 86.0156 55.0781C86.5781 55.5156 87.3125 55.7344 88.2188 55.7344C89.1719 55.7344 90.2422 55.5 91.4297 55.0312C92.6172 54.5625 93.7812 53.875 94.9219 52.9688C96.0781 52.0625 97.1328 50.9453 98.0859 49.6172C99.0547 48.2891 99.7891 46.7578 100.289 45.0234Z" fill="#EE2828"/>
<path d="M87.1172 41.3906C87.2109 41.3438 87.3047 41.3203 87.3984 41.3203C87.5859 41.3203 87.7578 41.4141 87.9141 41.6016C88.0703 41.7891 88.1484 41.9922 88.1484 42.2109C88.1484 42.4453 88.0703 42.6641 87.9141 42.8672C87.7578 43.0703 87.5156 43.2891 87.1875 43.5234C86.8594 43.7422 86.4375 44 85.9219 44.2969C85.4062 44.5938 84.7891 44.9531 84.0703 45.375C83.6328 45.6406 83.0391 46.0234 82.2891 46.5234C81.5547 47.0078 80.7266 47.5469 79.8047 48.1406C78.8984 48.7188 77.9297 49.3203 76.8984 49.9453C75.8672 50.5547 74.8359 51.1094 73.8047 51.6094C72.7734 52.125 71.7734 52.5391 70.8047 52.8516C69.8359 53.1797 68.9609 53.3438 68.1797 53.3438C67.6953 53.3438 67.25 53.2734 66.8438 53.1328C66.4531 52.9922 66.1172 52.7578 65.8359 52.4297C65.5547 52.1172 65.3359 51.7031 65.1797 51.1875C65.0234 50.6875 64.9453 50.0703 64.9453 49.3359C64.9453 48.3516 65.1094 47.2422 65.4375 46.0078C65.7656 44.7578 66.1797 43.4766 66.6797 42.1641C67.1953 40.8359 67.7656 39.5078 68.3906 38.1797C69.0156 36.8359 69.6328 35.5781 70.2422 34.4062C70.8516 33.2344 71.4141 32.1797 71.9297 31.2422C72.4453 30.3047 72.8438 29.5703 73.125 29.0391C72.125 29.0234 71.0781 28.9844 69.9844 28.9219C68.8906 28.8438 67.8516 28.7344 66.8672 28.5938C65.8984 28.4531 65.0312 28.2812 64.2656 28.0781C63.5156 27.875 62.9688 27.6328 62.625 27.3516C61.1562 29.1328 59.5078 30.9688 57.6797 32.8594C55.8672 34.7344 53.9219 36.5625 51.8438 38.3438C49.7812 40.1094 47.6094 41.7891 45.3281 43.3828C43.0469 44.9609 40.7109 46.3438 38.3203 47.5312C35.9453 48.7031 33.5312 49.6406 31.0781 50.3438C28.6406 51.0312 26.2266 51.375 23.8359 51.375C22.9141 51.375 22.0312 51.3438 21.1875 51.2812C20.3438 51.2188 19.5312 51.1094 18.75 50.9531C17.9688 50.7969 17.2188 50.5781 16.5 50.2969C15.7812 50.0156 15.0859 49.6562 14.4141 49.2188C14.1484 49.0469 13.875 48.8672 13.5938 48.6797C13.3125 48.4922 13.0625 48.3047 12.8438 48.1172C12.6094 47.9297 12.4219 47.75 12.2812 47.5781C12.125 47.3906 12.0391 47.2188 12.0234 47.0625H12.5156C12.5312 47.0625 12.7188 47.125 13.0781 47.25C13.4219 47.375 13.8828 47.5312 14.4609 47.7188C15.0391 47.9062 15.7031 48.1172 16.4531 48.3516C17.2031 48.5703 17.9922 48.7734 18.8203 48.9609C19.6641 49.1484 20.5156 49.3047 21.375 49.4297C22.25 49.5547 23.0859 49.6172 23.8828 49.6172C25.8828 49.6172 27.8281 49.2656 29.7188 48.5625C31.625 47.8594 33.4844 46.9062 35.2969 45.7031C37.125 44.4844 38.9141 43.0703 40.6641 41.4609C42.4297 39.8359 44.1719 38.1172 45.8906 36.3047C47.6094 34.4922 49.3047 32.6328 50.9766 30.7266C52.6641 28.8047 54.3438 26.9375 56.0156 25.125C57.6875 23.3125 59.3594 21.6016 61.0312 19.9922C62.7031 18.3672 64.3828 16.9531 66.0703 15.75C67.7734 14.5312 69.4922 13.5703 71.2266 12.8672C72.9609 12.1641 74.7188 11.8125 76.5 11.8125C77.7656 11.8125 78.8125 11.9844 79.6406 12.3281C80.4688 12.6562 81.1172 13.1016 81.5859 13.6641C82.0703 14.2266 82.4062 14.8828 82.5938 15.6328C82.7969 16.3672 82.8984 17.1406 82.8984 17.9531C82.8984 18.8438 82.8125 19.7578 82.6406 20.6953C82.4688 21.6328 82.2734 22.5234 82.0547 23.3672C81.8359 24.2109 81.625 24.9766 81.4219 25.6641C81.2188 26.3359 81.0859 26.8594 81.0234 27.2344L81 27.4219C83.6875 26.9531 86.0391 26.3281 88.0547 25.5469C90.0859 24.75 91.7812 23.8594 93.1406 22.875C94.5 21.8906 95.5156 20.8438 96.1875 19.7344C96.875 18.6094 97.2188 17.4844 97.2188 16.3594C97.2188 15.0625 96.7578 13.8047 95.8359 12.5859C94.9141 11.3516 93.5156 10.2656 91.6406 9.32812C89.7812 8.375 87.4375 7.61719 84.6094 7.05469C81.7969 6.47656 78.4922 6.1875 74.6953 6.1875C73.0547 6.1875 71.2031 6.28125 69.1406 6.46875C67.0938 6.64062 64.8984 6.875 62.5547 7.17188C60.2266 7.46875 57.7812 7.80469 55.2188 8.17969C52.6719 8.55469 50.0703 8.94531 47.4141 9.35156C44.7578 9.74219 42.0859 10.125 39.3984 10.5C36.7109 10.875 34.0625 11.2109 31.4531 11.5078C28.8594 11.8047 26.3359 12.0469 23.8828 12.2344C21.4297 12.4062 19.1094 12.4922 16.9219 12.4922C15.1719 12.4922 13.5625 12.4141 12.0938 12.2578C10.6094 12.0859 9.30469 11.8125 8.17969 11.4375C8.00781 11.3906 7.6875 11.2266 7.21875 10.9453C6.75 10.6484 6.21094 10.2891 5.60156 9.86719C4.99219 9.44531 4.35938 8.99219 3.70312 8.50781C3.04688 8.02344 2.44531 7.5625 1.89844 7.125C1.35156 6.6875 0.898438 6.30469 0.539062 5.97656C0.179688 5.63281 0 5.40625 0 5.29688C0 5.25 0.0390625 5.22656 0.117188 5.22656C0.226562 5.22656 0.414062 5.28125 0.679688 5.39062C0.929688 5.48438 1.28906 5.64844 1.75781 5.88281C4.11719 7.08594 6.875 7.9375 10.0312 8.4375C13.1719 8.92188 16.7734 9.16406 20.8359 9.16406C22.9922 9.16406 25.4297 9.05469 28.1484 8.83594C30.8672 8.61719 33.7812 8.35156 36.8906 8.03906C40 7.71094 43.2734 7.35938 46.7109 6.98438C50.1484 6.60938 53.6641 6.26562 57.2578 5.95312C60.8672 5.625 64.5156 5.35156 68.2031 5.13281C71.9062 4.91406 75.5781 4.80469 79.2188 4.80469C82.9062 4.80469 86.0781 5.10938 88.7344 5.71875C91.3906 6.32812 93.5781 7.14844 95.2969 8.17969C97.0156 9.19531 98.2812 10.3672 99.0938 11.6953C99.9062 13.0078 100.312 14.375 100.312 15.7969C100.312 16.8438 100.102 17.8906 99.6797 18.9375C99.2734 19.9844 98.6641 20.9922 97.8516 21.9609C97.0547 22.9141 96.0703 23.8203 94.8984 24.6797C93.7266 25.5391 92.3828 26.2969 90.8672 26.9531C89.3672 27.5938 87.7031 28.125 85.875 28.5469C84.0625 28.9688 82.1016 29.2344 79.9922 29.3438C79.8516 29.6406 79.5703 30.125 79.1484 30.7969C78.7422 31.4688 78.25 32.2656 77.6719 33.1875C77.0938 34.0938 76.4531 35.0859 75.75 36.1641C75.0625 37.2266 74.3672 38.3125 73.6641 39.4219C72.9609 40.5312 72.2812 41.625 71.625 42.7031C70.9688 43.7812 70.3828 44.7734 69.8672 45.6797C69.3672 46.5859 68.9609 47.375 68.6484 48.0469C68.3516 48.7031 68.2031 49.1797 68.2031 49.4766C68.2031 49.9922 68.3125 50.3672 68.5312 50.6016C68.75 50.8203 69.0625 50.9297 69.4688 50.9297C69.9688 50.9297 70.6016 50.7734 71.3672 50.4609C72.1328 50.1484 72.9844 49.7344 73.9219 49.2188C74.8594 48.6875 75.8672 48.0938 76.9453 47.4375C78.0234 46.7656 79.1328 46.0781 80.2734 45.375C81.4141 44.6562 82.5625 43.9531 83.7188 43.2656C84.875 42.5781 86.0078 41.9531 87.1172 41.3906ZM74.0859 27.3516C74.5391 26.3984 75.0391 25.3906 75.5859 24.3281C76.1484 23.25 76.6719 22.1875 77.1562 21.1406C77.6406 20.0781 78.0469 19.0625 78.375 18.0938C78.7031 17.1094 78.8672 16.2422 78.8672 15.4922C78.8672 14.7891 78.7344 14.2891 78.4688 13.9922C78.2031 13.6953 77.8438 13.5469 77.3906 13.5469C76.8281 13.5469 76.1484 13.7422 75.3516 14.1328C74.5703 14.5234 73.7344 15.0469 72.8438 15.7031C71.9688 16.3594 71.0781 17.1094 70.1719 17.9531C69.2656 18.7969 68.4062 19.6719 67.5938 20.5781C66.7969 21.4844 66.0781 22.3906 65.4375 23.2969C64.7969 24.1875 64.3125 25.0156 63.9844 25.7812C64.1719 26.0312 64.6016 26.2578 65.2734 26.4609C65.9453 26.6484 66.7578 26.8125 67.7109 26.9531C68.6641 27.0781 69.6953 27.1797 70.8047 27.2578C71.9297 27.3203 73.0234 27.3516 74.0859 27.3516Z" fill="#EE2828"/>
</svg>
